solid OpenSCAD_Model
  facet normal 0 0 -1
    outer loop
      vertex -27 0 0
      vertex -26.41 5.61362 0
      vertex -26.41 -5.61362 0
    endloop
  endfacet
  facet normal 0 0 -1
    outer loop
      vertex -26.41 -5.61362 0
      vertex -26.41 5.61362 0
      vertex -24.6657 10.9819 0
    endloop
  endfacet
  facet normal 0 0 -1
    outer loop
      vertex -24.4537 5.19779 0
      vertex -24.6657 10.9819 0
      vertex -21.8435 15.8702 0
    endloop
  endfacet
  facet normal 0 0 -1
    outer loop
      vertex -20.2254 14.6946 0
      vertex -21.8435 15.8702 0
      vertex -18.0665 20.0649 0
    endloop
  endfacet
  facet normal 0 0 -1
    outer loop
      vertex -16.7283 18.5786 0
      vertex -18.0665 20.0649 0
      vertex -13.5 23.3827 0
    endloop
  endfacet
  facet normal 0 0 -1
    outer loop
      vertex -12.5 21.6506 0
      vertex -13.5 23.3827 0
      vertex -8.34346 25.6785 0
    endloop
  endfacet
  facet normal 0 0 -1
    outer loop
      vertex -7.72542 23.7764 0
      vertex -8.34346 25.6785 0
      vertex -2.82227 26.8521 0
    endloop
  endfacet
  facet normal 0 0 -1
    outer loop
      vertex -2.61321 24.863 0
      vertex -2.82227 26.8521 0
      vertex 2.82227 26.8521 0
    endloop
  endfacet
  facet normal 0 0 -1
    outer loop
      vertex 2.61321 24.863 0
      vertex 2.82227 26.8521 0
      vertex 8.34346 25.6785 0
    endloop
  endfacet
  facet normal 0 0 -1
    outer loop
      vertex 7.72542 23.7764 0
      vertex 8.34346 25.6785 0
      vertex 13.5 23.3827 0
    endloop
  endfacet
  facet normal 0 0 -1
    outer loop
      vertex 12.5 21.6506 0
      vertex 13.5 23.3827 0
      vertex 18.0665 20.0649 0
    endloop
  endfacet
  facet normal 0 0 -1
    outer loop
      vertex 16.7283 18.5786 0
      vertex 18.0665 20.0649 0
      vertex 21.8435 15.8702 0
    endloop
  endfacet
  facet normal 0 0 -1
    outer loop
      vertex 20.2254 14.6946 0
      vertex 21.8435 15.8702 0
      vertex 24.6657 10.9819 0
    endloop
  endfacet
  facet normal 0 0 -1
    outer loop
      vertex 22.8386 10.1684 0
      vertex 24.6657 10.9819 0
      vertex 26.41 5.61362 0
    endloop
  endfacet
  facet normal 0 0 -1
    outer loop
      vertex 24.4537 5.19779 0
      vertex 26.41 5.61362 0
      vertex 26.4745 5 0
    endloop
  endfacet
  facet normal 0 0 -1
    outer loop
      vertex 32.4271 1.76336 0
      vertex 33.5355 3.53553 0
      vertex 34.6194 1.91342 0
    endloop
  endfacet
  facet normal 0 0 -1
    outer loop
      vertex 32.4271 -1.76336 0
      vertex 34.6194 -1.91342 0
      vertex 30.9271 -2.85317 0
    endloop
  endfacet
  facet normal 0 0 -1
    outer loop
      vertex 32.4271 -1.76336 0
      vertex 35 0 0
      vertex 34.6194 -1.91342 0
    endloop
  endfacet
  facet normal 0 0 -1
    outer loop
      vertex 30.9271 -2.85317 0
      vertex 34.6194 -1.91342 0
      vertex 33.5355 -3.53553 0
    endloop
  endfacet
  facet normal 0 0 -1
    outer loop
      vertex 26.4745 -5 0
      vertex 30.5 -4.90054 0
      vertex 30.5 -5 0
    endloop
  endfacet
  facet normal 0 0 -1
    outer loop
      vertex -20.2254 14.6946 0
      vertex -18.0665 20.0649 0
      vertex -16.7283 18.5786 0
    endloop
  endfacet
  facet normal 0 0 -1
    outer loop
      vertex -25 0 0
      vertex -26.41 -5.61362 0
      vertex -24.4537 5.19779 0
    endloop
  endfacet
  facet normal 0 0 -1
    outer loop
      vertex 22.8386 -10.1684 0
      vertex 26.41 -5.61362 0
      vertex 24.6657 -10.9819 0
    endloop
  endfacet
  facet normal 0 0 -1
    outer loop
      vertex 16.7283 -18.5786 0
      vertex 21.8435 -15.8702 0
      vertex 18.0665 -20.0649 0
    endloop
  endfacet
  facet normal 0 0 -1
    outer loop
      vertex 12.5 -21.6506 0
      vertex 18.0665 -20.0649 0
      vertex 13.5 -23.3827 0
    endloop
  endfacet
  facet normal 0 0 -1
    outer loop
      vertex 7.72542 -23.7764 0
      vertex 13.5 -23.3827 0
      vertex 8.34346 -25.6785 0
    endloop
  endfacet
  facet normal 0 0 -1
    outer loop
      vertex 2.61321 -24.863 0
      vertex 8.34346 -25.6785 0
      vertex 2.82227 -26.8521 0
    endloop
  endfacet
  facet normal 0 0 -1
    outer loop
      vertex -2.61321 -24.863 0
      vertex 2.82227 -26.8521 0
      vertex -2.82227 -26.8521 0
    endloop
  endfacet
  facet normal 0 0 -1
    outer loop
      vertex -7.72542 -23.7764 0
      vertex -2.82227 -26.8521 0
      vertex -8.34346 -25.6785 0
    endloop
  endfacet
  facet normal 0 0 -1
    outer loop
      vertex -16.7283 -18.5786 0
      vertex -8.34346 -25.6785 0
      vertex -13.5 -23.3827 0
    endloop
  endfacet
  facet normal 0 0 -1
    outer loop
      vertex -20.2254 -14.6946 0
      vertex -13.5 -23.3827 0
      vertex -18.0665 -20.0649 0
    endloop
  endfacet
  facet normal 0 0 -1
    outer loop
      vertex -26.41 -5.61362 0
      vertex -18.0665 -20.0649 0
      vertex -21.8435 -15.8702 0
    endloop
  endfacet
  facet normal 0 0 -1
    outer loop
      vertex -26.41 -5.61362 0
      vertex -21.8435 -15.8702 0
      vertex -24.6657 -10.9819 0
    endloop
  endfacet
  facet normal 0 0 -1
    outer loop
      vertex -24.4537 -5.19779 0
      vertex -26.41 -5.61362 0
      vertex -25 0 0
    endloop
  endfacet
  facet normal 0 0 -1
    outer loop
      vertex 24.4537 5.19779 0
      vertex 29.0729 2.85317 0
      vertex 27.5729 1.76336 0
    endloop
  endfacet
  facet normal 0 0 -1
    outer loop
      vertex -22.8386 -10.1684 0
      vertex -26.41 -5.61362 0
      vertex -24.4537 -5.19779 0
    endloop
  endfacet
  facet normal 0 0 -1
    outer loop
      vertex -20.2254 -14.6946 0
      vertex -26.41 -5.61362 0
      vertex -22.8386 -10.1684 0
    endloop
  endfacet
  facet normal 0 0 -1
    outer loop
      vertex -16.7283 -18.5786 0
      vertex -13.5 -23.3827 0
      vertex -20.2254 -14.6946 0
    endloop
  endfacet
  facet normal 0 0 -1
    outer loop
      vertex -26.41 -5.61362 0
      vertex -20.2254 -14.6946 0
      vertex -18.0665 -20.0649 0
    endloop
  endfacet
  facet normal 0 0 -1
    outer loop
      vertex -12.5 -21.6506 0
      vertex -8.34346 -25.6785 0
      vertex -16.7283 -18.5786 0
    endloop
  endfacet
  facet normal 0 0 -1
    outer loop
      vertex -7.72542 -23.7764 0
      vertex -8.34346 -25.6785 0
      vertex -12.5 -21.6506 0
    endloop
  endfacet
  facet normal 0 0 -1
    outer loop
      vertex 25 0 0
      vertex 27 0 0
      vertex 27.5729 -1.76336 0
    endloop
  endfacet
  facet normal 0 0 -1
    outer loop
      vertex 25 0 0
      vertex 27.5729 -1.76336 0
      vertex 29.0729 -2.85317 0
    endloop
  endfacet
  facet normal 0 0 -1
    outer loop
      vertex 29.0729 -2.85317 0
      vertex 31.9134 -4.6194 0
      vertex 30.5 -4.90054 0
    endloop
  endfacet
  facet normal 0 0 -1
    outer loop
      vertex 29.0729 -2.85317 0
      vertex 33.5355 -3.53553 0
      vertex 31.9134 -4.6194 0
    endloop
  endfacet
  facet normal 0 0 -1
    outer loop
      vertex 25 0 0
      vertex 30.5 -4.90054 0
      vertex 26.4745 -5 0
    endloop
  endfacet
  facet normal 0 0 -1
    outer loop
      vertex 25 0 0
      vertex 29.0729 -2.85317 0
      vertex 30.5 -4.90054 0
    endloop
  endfacet
  facet normal 0 0 -1
    outer loop
      vertex 25 0 0
      vertex 26.4745 -5 0
      vertex 24.4537 -5.19779 0
    endloop
  endfacet
  facet normal 0 0 -1
    outer loop
      vertex 24.6657 -10.9819 0
      vertex 21.8435 -15.8702 0
      vertex 20.2254 -14.6946 0
    endloop
  endfacet
  facet normal 0 0 -1
    outer loop
      vertex 27 0 0
      vertex 25 0 0
      vertex 27.5729 1.76336 0
    endloop
  endfacet
  facet normal 0 0 -1
    outer loop
      vertex 20.2254 14.6946 0
      vertex 24.6657 10.9819 0
      vertex 22.8386 10.1684 0
    endloop
  endfacet
  facet normal 0 0 -1
    outer loop
      vertex 22.8386 10.1684 0
      vertex 26.41 5.61362 0
      vertex 24.4537 5.19779 0
    endloop
  endfacet
  facet normal 0 0 -1
    outer loop
      vertex 26.4745 5 0
      vertex 30.5 4.90054 0
      vertex 31.9134 4.6194 0
    endloop
  endfacet
  facet normal 0 0 -1
    outer loop
      vertex 26.4745 5 0
      vertex 30.5 5 0
      vertex 30.5 4.90054 0
    endloop
  endfacet
  facet normal 0 0 -1
    outer loop
      vertex 24.4537 5.19779 0
      vertex 26.4745 5 0
      vertex 33.5355 3.53553 0
    endloop
  endfacet
  facet normal 0 0 -1
    outer loop
      vertex 26.4745 5 0
      vertex 31.9134 4.6194 0
      vertex 33.5355 3.53553 0
    endloop
  endfacet
  facet normal 0 0 -1
    outer loop
      vertex 24.4537 5.19779 0
      vertex 33.5355 3.53553 0
      vertex 29.0729 2.85317 0
    endloop
  endfacet
  facet normal 0 0 -1
    outer loop
      vertex -22.8386 10.1684 0
      vertex -21.8435 15.8702 0
      vertex -20.2254 14.6946 0
    endloop
  endfacet
  facet normal 0 0 -1
    outer loop
      vertex -24.4537 5.19779 0
      vertex -21.8435 15.8702 0
      vertex -22.8386 10.1684 0
    endloop
  endfacet
  facet normal 0 0 -1
    outer loop
      vertex -26.41 -5.61362 0
      vertex -24.6657 10.9819 0
      vertex -24.4537 5.19779 0
    endloop
  endfacet
  facet normal 0 0 -1
    outer loop
      vertex 33 0 0
      vertex 34.6194 1.91342 0
      vertex 35 0 0
    endloop
  endfacet
  facet normal 0 0 -1
    outer loop
      vertex 29.0729 -2.85317 0
      vertex 30.9271 -2.85317 0
      vertex 33.5355 -3.53553 0
    endloop
  endfacet
  facet normal 0 0 -1
    outer loop
      vertex 33 0 0
      vertex 35 0 0
      vertex 32.4271 -1.76336 0
    endloop
  endfacet
  facet normal 0 0 -1
    outer loop
      vertex 30.9271 2.85317 0
      vertex 33.5355 3.53553 0
      vertex 32.4271 1.76336 0
    endloop
  endfacet
  facet normal 0 0 -1
    outer loop
      vertex 29.0729 2.85317 0
      vertex 33.5355 3.53553 0
      vertex 30.9271 2.85317 0
    endloop
  endfacet
  facet normal 0 0 -1
    outer loop
      vertex 26.41 -5.61362 0
      vertex 24.4537 -5.19779 0
      vertex 26.4745 -5 0
    endloop
  endfacet
  facet normal 0 0 -1
    outer loop
      vertex -16.7283 18.5786 0
      vertex -13.5 23.3827 0
      vertex -12.5 21.6506 0
    endloop
  endfacet
  facet normal 0 0 -1
    outer loop
      vertex -12.5 21.6506 0
      vertex -8.34346 25.6785 0
      vertex -7.72542 23.7764 0
    endloop
  endfacet
  facet normal 0 0 -1
    outer loop
      vertex -7.72542 23.7764 0
      vertex -2.82227 26.8521 0
      vertex -2.61321 24.863 0
    endloop
  endfacet
  facet normal 0 0 -1
    outer loop
      vertex -2.61321 24.863 0
      vertex 2.82227 26.8521 0
      vertex 2.61321 24.863 0
    endloop
  endfacet
  facet normal 0 0 -1
    outer loop
      vertex 2.61321 24.863 0
      vertex 8.34346 25.6785 0
      vertex 7.72542 23.7764 0
    endloop
  endfacet
  facet normal 0 0 -1
    outer loop
      vertex 7.72542 23.7764 0
      vertex 13.5 23.3827 0
      vertex 12.5 21.6506 0
    endloop
  endfacet
  facet normal 0 0 -1
    outer loop
      vertex 12.5 21.6506 0
      vertex 18.0665 20.0649 0
      vertex 16.7283 18.5786 0
    endloop
  endfacet
  facet normal 0 0 -1
    outer loop
      vertex 16.7283 18.5786 0
      vertex 21.8435 15.8702 0
      vertex 20.2254 14.6946 0
    endloop
  endfacet
  facet normal 0 0 -1
    outer loop
      vertex 24.4537 5.19779 0
      vertex 27.5729 1.76336 0
      vertex 25 0 0
    endloop
  endfacet
  facet normal 0 0 -1
    outer loop
      vertex 32.4271 1.76336 0
      vertex 34.6194 1.91342 0
      vertex 33 0 0
    endloop
  endfacet
  facet normal 0 0 -1
    outer loop
      vertex 24.4537 -5.19779 0
      vertex 26.41 -5.61362 0
      vertex 22.8386 -10.1684 0
    endloop
  endfacet
  facet normal 0 0 -1
    outer loop
      vertex 22.8386 -10.1684 0
      vertex 24.6657 -10.9819 0
      vertex 20.2254 -14.6946 0
    endloop
  endfacet
  facet normal 0 0 -1
    outer loop
      vertex 20.2254 -14.6946 0
      vertex 21.8435 -15.8702 0
      vertex 16.7283 -18.5786 0
    endloop
  endfacet
  facet normal 0 0 -1
    outer loop
      vertex 16.7283 -18.5786 0
      vertex 18.0665 -20.0649 0
      vertex 12.5 -21.6506 0
    endloop
  endfacet
  facet normal 0 0 -1
    outer loop
      vertex 12.5 -21.6506 0
      vertex 13.5 -23.3827 0
      vertex 7.72542 -23.7764 0
    endloop
  endfacet
  facet normal 0 0 -1
    outer loop
      vertex 7.72542 -23.7764 0
      vertex 8.34346 -25.6785 0
      vertex 2.61321 -24.863 0
    endloop
  endfacet
  facet normal 0 0 -1
    outer loop
      vertex 2.61321 -24.863 0
      vertex 2.82227 -26.8521 0
      vertex -2.61321 -24.863 0
    endloop
  endfacet
  facet normal 0 0 -1
    outer loop
      vertex -2.61321 -24.863 0
      vertex -2.82227 -26.8521 0
      vertex -7.72542 -23.7764 0
    endloop
  endfacet
  facet normal -0.95515 0.10039 0.278585
    outer loop
      vertex -26.41 5.61362 0
      vertex -27 0 0
      vertex -9.2924 1.97516 60
    endloop
  endfacet
  facet normal -0.95515 0.10039 0.278585
    outer loop
      vertex -9.2924 1.97516 60
      vertex -27 0 0
      vertex -9.5 0 60
    endloop
  endfacet
  facet normal -0.95515 -0.10039 0.278585
    outer loop
      vertex -9.5 0 60
      vertex -27 0 0
      vertex -26.41 -5.61362 0
    endloop
  endfacet
  facet normal -0.95515 -0.10039 0.278585
    outer loop
      vertex -9.5 0 60
      vertex -26.41 -5.61362 0
      vertex -9.2924 -1.97516 60
    endloop
  endfacet
  facet normal -0.913406 -0.296784 0.278585
    outer loop
      vertex -9.2924 -1.97516 60
      vertex -26.41 -5.61362 0
      vertex -24.6657 -10.9819 0
    endloop
  endfacet
  facet normal -0.913406 -0.296783 0.278585
    outer loop
      vertex -9.2924 -1.97516 60
      vertex -24.6657 -10.9819 0
      vertex -8.67868 -3.864 60
    endloop
  endfacet
  facet normal -0.831741 -0.480206 0.278585
    outer loop
      vertex -8.67868 -3.864 60
      vertex -24.6657 -10.9819 0
      vertex -21.8435 -15.8702 0
    endloop
  endfacet
  facet normal -0.831741 -0.480206 0.278585
    outer loop
      vertex -8.67868 -3.864 60
      vertex -21.8435 -15.8702 0
      vertex -7.68566 -5.58396 60
    endloop
  endfacet
  facet normal -0.713725 -0.642641 0.278585
    outer loop
      vertex -7.68566 -5.58396 60
      vertex -21.8435 -15.8702 0
      vertex -18.0665 -20.0649 0
    endloop
  endfacet
  facet normal -0.713725 -0.64264 0.278585
    outer loop
      vertex -7.68566 -5.58396 60
      vertex -18.0665 -20.0649 0
      vertex -6.35674 -7.05988 60
    endloop
  endfacet
  facet normal -0.564516 -0.776989 0.278585
    outer loop
      vertex -6.35674 -7.05988 60
      vertex -18.0665 -20.0649 0
      vertex -13.5 -23.3827 0
    endloop
  endfacet
  facet normal -0.564515 -0.776989 0.278585
    outer loop
      vertex -6.35674 -7.05988 60
      vertex -13.5 -23.3827 0
      vertex -4.75 -8.22724 60
    endloop
  endfacet
  facet normal -0.390635 -0.87738 0.278585
    outer loop
      vertex -4.75 -8.22724 60
      vertex -13.5 -23.3827 0
      vertex -8.34346 -25.6785 0
    endloop
  endfacet
  facet normal -0.390635 -0.877379 0.278585
    outer loop
      vertex -4.75 -8.22724 60
      vertex -8.34346 -25.6785 0
      vertex -2.93566 -9.03504 60
    endloop
  endfacet
  facet normal -0.199681 -0.939424 0.278585
    outer loop
      vertex -2.93566 -9.03504 60
      vertex -8.34346 -25.6785 0
      vertex -2.82227 -26.8521 0
    endloop
  endfacet
  facet normal -0.199681 -0.939424 0.278585
    outer loop
      vertex -0.99302 -9.44796 60
      vertex -2.93566 -9.03504 60
      vertex -2.82227 -26.8521 0
    endloop
  endfacet
  facet normal 0 -0.960411 0.278585
    outer loop
      vertex -0.99302 -9.44796 60
      vertex -2.82227 -26.8521 0
      vertex 2.82227 -26.8521 0
    endloop
  endfacet
  facet normal 0 -0.960411 0.278585
    outer loop
      vertex 0.99302 -9.44796 60
      vertex -0.99302 -9.44796 60
      vertex 2.82227 -26.8521 0
    endloop
  endfacet
  facet normal 0.199681 -0.939424 0.278585
    outer loop
      vertex 8.34346 -25.6785 0
      vertex 0.99302 -9.44796 60
      vertex 2.82227 -26.8521 0
    endloop
  endfacet
  facet normal 0.199681 -0.939424 0.278585
    outer loop
      vertex 2.93566 -9.03504 60
      vertex 0.99302 -9.44796 60
      vertex 8.34346 -25.6785 0
    endloop
  endfacet
  facet normal 0.390635 -0.87738 0.278585
    outer loop
      vertex 13.5 -23.3827 0
      vertex 2.93566 -9.03504 60
      vertex 8.34346 -25.6785 0
    endloop
  endfacet
  facet normal 0.390635 -0.877379 0.278585
    outer loop
      vertex 4.75 -8.22724 60
      vertex 2.93566 -9.03504 60
      vertex 13.5 -23.3827 0
    endloop
  endfacet
  facet normal 0.564516 -0.776989 0.278585
    outer loop
      vertex 18.0665 -20.0649 0
      vertex 4.75 -8.22724 60
      vertex 13.5 -23.3827 0
    endloop
  endfacet
  facet normal 0.564515 -0.776989 0.278585
    outer loop
      vertex 6.35674 -7.05988 60
      vertex 4.75 -8.22724 60
      vertex 18.0665 -20.0649 0
    endloop
  endfacet
  facet normal 0.713725 -0.642641 0.278585
    outer loop
      vertex 21.8435 -15.8702 0
      vertex 6.35674 -7.05988 60
      vertex 18.0665 -20.0649 0
    endloop
  endfacet
  facet normal 0.713725 -0.64264 0.278585
    outer loop
      vertex 7.68566 -5.58396 60
      vertex 6.35674 -7.05988 60
      vertex 21.8435 -15.8702 0
    endloop
  endfacet
  facet normal 0.831741 -0.480206 0.278585
    outer loop
      vertex 24.6657 -10.9819 0
      vertex 7.68566 -5.58396 60
      vertex 21.8435 -15.8702 0
    endloop
  endfacet
  facet normal 0.831741 -0.480206 0.278585
    outer loop
      vertex 8.67868 -3.864 60
      vertex 7.68566 -5.58396 60
      vertex 24.6657 -10.9819 0
    endloop
  endfacet
  facet normal 0.913406 -0.296784 0.278585
    outer loop
      vertex 26.41 -5.61362 0
      vertex 8.67868 -3.864 60
      vertex 24.6657 -10.9819 0
    endloop
  endfacet
  facet normal 0.913406 -0.296783 0.278585
    outer loop
      vertex 9.2924 -1.97516 60
      vertex 8.67868 -3.864 60
      vertex 26.41 -5.61362 0
    endloop
  endfacet
  facet normal 0.95515 -0.10039 0.278585
    outer loop
      vertex 25.8911 -5 2
      vertex 9.2924 -1.97516 60
      vertex 26.41 -5.61362 0
    endloop
  endfacet
  facet normal 0.95515 -0.10039 0.278585
    outer loop
      vertex 26.4097 -0.0658387 2
      vertex 9.2924 -1.97516 60
      vertex 25.8911 -5 2
    endloop
  endfacet
  facet normal 0.95515 -0.10039 0.278585
    outer loop
      vertex 26.4745 -5 0
      vertex 25.8911 -5 2
      vertex 26.41 -5.61362 0
    endloop
  endfacet
  facet normal 0 -1 0
    outer loop
      vertex 30.5 -5 2
      vertex 25.8911 -5 2
      vertex 26.4745 -5 0
    endloop
  endfacet
  facet normal 0 -1 0
    outer loop
      vertex 30.5 -5 0
      vertex 30.5 -5 2
      vertex 26.4745 -5 0
    endloop
  endfacet
  facet normal 1 0 0
    outer loop
      vertex 30.5 -5 2
      vertex 30.5 -5 0
      vertex 30.5 -4.90054 0
    endloop
  endfacet
  facet normal 1 0 0
    outer loop
      vertex 30.5 -4.90054 2
      vertex 30.5 -5 2
      vertex 30.5 -4.90054 0
    endloop
  endfacet
  facet normal 0.19509 -0.980785 0
    outer loop
      vertex 30.5 -4.90054 2
      vertex 30.5 -4.90054 0
      vertex 31.9134 -4.6194 0
    endloop
  endfacet
  facet normal 0.19509 -0.980785 0
    outer loop
      vertex 31.9134 -4.6194 2
      vertex 30.5 -4.90054 2
      vertex 31.9134 -4.6194 0
    endloop
  endfacet
  facet normal 0.55557 -0.83147 0
    outer loop
      vertex 31.9134 -4.6194 2
      vertex 31.9134 -4.6194 0
      vertex 33.5355 -3.53553 0
    endloop
  endfacet
  facet normal 0.55557 -0.83147 0
    outer loop
      vertex 33.5355 -3.53553 2
      vertex 31.9134 -4.6194 2
      vertex 33.5355 -3.53553 0
    endloop
  endfacet
  facet normal 0.83147 -0.55557 0
    outer loop
      vertex 33.5355 -3.53553 2
      vertex 33.5355 -3.53553 0
      vertex 34.6194 -1.91342 0
    endloop
  endfacet
  facet normal 0.83147 -0.55557 0
    outer loop
      vertex 34.6194 -1.91342 2
      vertex 33.5355 -3.53553 2
      vertex 34.6194 -1.91342 0
    endloop
  endfacet
  facet normal 0.980785 -0.19509 0
    outer loop
      vertex 34.6194 -1.91342 2
      vertex 34.6194 -1.91342 0
      vertex 35 0 0
    endloop
  endfacet
  facet normal 0.980785 -0.19509 0
    outer loop
      vertex 35 0 2
      vertex 34.6194 -1.91342 2
      vertex 35 0 0
    endloop
  endfacet
  facet normal 0.980785 0.19509 0
    outer loop
      vertex 35 0 0
      vertex 34.6194 1.91342 0
      vertex 34.6194 1.91342 2
    endloop
  endfacet
  facet normal 0.980785 0.19509 0
    outer loop
      vertex 35 0 2
      vertex 35 0 0
      vertex 34.6194 1.91342 2
    endloop
  endfacet
  facet normal 0.83147 0.55557 0
    outer loop
      vertex 34.6194 1.91342 0
      vertex 33.5355 3.53553 0
      vertex 33.5355 3.53553 2
    endloop
  endfacet
  facet normal 0.83147 0.55557 0
    outer loop
      vertex 34.6194 1.91342 2
      vertex 34.6194 1.91342 0
      vertex 33.5355 3.53553 2
    endloop
  endfacet
  facet normal 0.55557 0.83147 0
    outer loop
      vertex 31.9134 4.6194 0
      vertex 31.9134 4.6194 2
      vertex 33.5355 3.53553 0
    endloop
  endfacet
  facet normal 0.55557 0.83147 0
    outer loop
      vertex 33.5355 3.53553 0
      vertex 31.9134 4.6194 2
      vertex 33.5355 3.53553 2
    endloop
  endfacet
  facet normal 0.19509 0.980785 0
    outer loop
      vertex 30.5 4.90054 0
      vertex 30.5 4.90054 2
      vertex 31.9134 4.6194 0
    endloop
  endfacet
  facet normal 0.19509 0.980785 0
    outer loop
      vertex 31.9134 4.6194 0
      vertex 30.5 4.90054 2
      vertex 31.9134 4.6194 2
    endloop
  endfacet
  facet normal 1 0 0
    outer loop
      vertex 30.5 4.90054 2
      vertex 30.5 4.90054 0
      vertex 30.5 5 0
    endloop
  endfacet
  facet normal 1 0 0
    outer loop
      vertex 30.5 5 2
      vertex 30.5 4.90054 2
      vertex 30.5 5 0
    endloop
  endfacet
  facet normal 0 1 0
    outer loop
      vertex 25.8911 5 2
      vertex 30.5 5 2
      vertex 26.4745 5 0
    endloop
  endfacet
  facet normal 0 1 0
    outer loop
      vertex 26.4745 5 0
      vertex 30.5 5 2
      vertex 30.5 5 0
    endloop
  endfacet
  facet normal 0.95515 0.10039 0.278585
    outer loop
      vertex 25.8911 5 2
      vertex 9.5 0 60
      vertex 26.4167 0 2
    endloop
  endfacet
  facet normal 0.95515 0.10039 0.278585
    outer loop
      vertex 26.41 5.61362 0
      vertex 9.5 0 60
      vertex 25.8911 5 2
    endloop
  endfacet
  facet normal 0.95515 0.10039 0.278585
    outer loop
      vertex 25.8911 5 2
      vertex 26.4745 5 0
      vertex 26.41 5.61362 0
    endloop
  endfacet
  facet normal 0.95515 0.10039 0.278585
    outer loop
      vertex 26.41 5.61362 0
      vertex 9.2924 1.97516 60
      vertex 9.5 0 60
    endloop
  endfacet
  facet normal 0.913406 0.296784 0.278585
    outer loop
      vertex 24.6657 10.9819 0
      vertex 9.2924 1.97516 60
      vertex 26.41 5.61362 0
    endloop
  endfacet
  facet normal 0.913406 0.296783 0.278585
    outer loop
      vertex 24.6657 10.9819 0
      vertex 8.67868 3.864 60
      vertex 9.2924 1.97516 60
    endloop
  endfacet
  facet normal 0.831741 0.480206 0.278585
    outer loop
      vertex 21.8435 15.8702 0
      vertex 8.67868 3.864 60
      vertex 24.6657 10.9819 0
    endloop
  endfacet
  facet normal 0.831741 0.480206 0.278585
    outer loop
      vertex 21.8435 15.8702 0
      vertex 7.68566 5.58396 60
      vertex 8.67868 3.864 60
    endloop
  endfacet
  facet normal 0.713725 0.642641 0.278585
    outer loop
      vertex 18.0665 20.0649 0
      vertex 7.68566 5.58396 60
      vertex 21.8435 15.8702 0
    endloop
  endfacet
  facet normal 0.713725 0.64264 0.278585
    outer loop
      vertex 18.0665 20.0649 0
      vertex 6.35674 7.05988 60
      vertex 7.68566 5.58396 60
    endloop
  endfacet
  facet normal 0.564516 0.776989 0.278585
    outer loop
      vertex 13.5 23.3827 0
      vertex 6.35674 7.05988 60
      vertex 18.0665 20.0649 0
    endloop
  endfacet
  facet normal 0.564515 0.776989 0.278585
    outer loop
      vertex 13.5 23.3827 0
      vertex 4.75 8.22724 60
      vertex 6.35674 7.05988 60
    endloop
  endfacet
  facet normal 0.390635 0.87738 0.278585
    outer loop
      vertex 8.34346 25.6785 0
      vertex 4.75 8.22724 60
      vertex 13.5 23.3827 0
    endloop
  endfacet
  facet normal 0.390635 0.877379 0.278585
    outer loop
      vertex 8.34346 25.6785 0
      vertex 2.93566 9.03504 60
      vertex 4.75 8.22724 60
    endloop
  endfacet
  facet normal 0.199681 0.939424 0.278585
    outer loop
      vertex 8.34346 25.6785 0
      vertex 2.82227 26.8521 0
      vertex 2.93566 9.03504 60
    endloop
  endfacet
  facet normal 0.199681 0.939424 0.278585
    outer loop
      vertex 2.82227 26.8521 0
      vertex 0.99302 9.44796 60
      vertex 2.93566 9.03504 60
    endloop
  endfacet
  facet normal 0 0.960411 0.278585
    outer loop
      vertex -2.82227 26.8521 0
      vertex -0.99302 9.44796 60
      vertex 2.82227 26.8521 0
    endloop
  endfacet
  facet normal 0 0.960411 0.278585
    outer loop
      vertex 2.82227 26.8521 0
      vertex -0.99302 9.44796 60
      vertex 0.99302 9.44796 60
    endloop
  endfacet
  facet normal -0.199681 0.939424 0.278585
    outer loop
      vertex -2.82227 26.8521 0
      vertex -8.34346 25.6785 0
      vertex -0.99302 9.44796 60
    endloop
  endfacet
  facet normal -0.199681 0.939424 0.278585
    outer loop
      vertex -0.99302 9.44796 60
      vertex -8.34346 25.6785 0
      vertex -2.93566 9.03504 60
    endloop
  endfacet
  facet normal -0.390635 0.87738 0.278585
    outer loop
      vertex -8.34346 25.6785 0
      vertex -13.5 23.3827 0
      vertex -2.93566 9.03504 60
    endloop
  endfacet
  facet normal -0.390635 0.877379 0.278585
    outer loop
      vertex -2.93566 9.03504 60
      vertex -13.5 23.3827 0
      vertex -4.75 8.22724 60
    endloop
  endfacet
  facet normal -0.564516 0.776989 0.278585
    outer loop
      vertex -13.5 23.3827 0
      vertex -18.0665 20.0649 0
      vertex -4.75 8.22724 60
    endloop
  endfacet
  facet normal -0.564515 0.776989 0.278585
    outer loop
      vertex -4.75 8.22724 60
      vertex -18.0665 20.0649 0
      vertex -6.35674 7.05988 60
    endloop
  endfacet
  facet normal -0.713725 0.642641 0.278585
    outer loop
      vertex -18.0665 20.0649 0
      vertex -21.8435 15.8702 0
      vertex -6.35674 7.05988 60
    endloop
  endfacet
  facet normal -0.713725 0.64264 0.278585
    outer loop
      vertex -6.35674 7.05988 60
      vertex -21.8435 15.8702 0
      vertex -7.68566 5.58396 60
    endloop
  endfacet
  facet normal -0.831741 0.480206 0.278585
    outer loop
      vertex -21.8435 15.8702 0
      vertex -24.6657 10.9819 0
      vertex -7.68566 5.58396 60
    endloop
  endfacet
  facet normal -0.831741 0.480206 0.278585
    outer loop
      vertex -7.68566 5.58396 60
      vertex -24.6657 10.9819 0
      vertex -8.67868 3.864 60
    endloop
  endfacet
  facet normal -0.913406 0.296784 0.278585
    outer loop
      vertex -24.6657 10.9819 0
      vertex -26.41 5.61362 0
      vertex -8.67868 3.864 60
    endloop
  endfacet
  facet normal -0.913406 0.296783 0.278585
    outer loop
      vertex -8.67868 3.864 60
      vertex -26.41 5.61362 0
      vertex -9.2924 1.97516 60
    endloop
  endfacet
  facet normal 0.95515 0.10039 -0.278585
    outer loop
      vertex -7.5 0 60
      vertex -24.4537 -5.19779 0
      vertex -25 0 0
    endloop
  endfacet
  facet normal 0.95515 -0.10039 -0.278585
    outer loop
      vertex -7.33611 1.55934 60
      vertex -7.5 0 60
      vertex -25 0 0
    endloop
  endfacet
  facet normal 0.95515 -0.10039 -0.278585
    outer loop
      vertex -24.4537 5.19779 0
      vertex -7.33611 1.55934 60
      vertex -25 0 0
    endloop
  endfacet
  facet normal 0.913406 -0.296783 -0.278585
    outer loop
      vertex -7.09418 2.30391 60
      vertex -7.26651 1.77354 60
      vertex -24.4537 5.19779 0
    endloop
  endfacet
  facet normal 0.913406 -0.296783 -0.278585
    outer loop
      vertex -6.85159 3.05052 60
      vertex -7.09418 2.30391 60
      vertex -24.4537 5.19779 0
    endloop
  endfacet
  facet normal 0.913406 -0.296783 -0.278585
    outer loop
      vertex -7.26651 1.77354 60
      vertex -7.33611 1.55934 60
      vertex -24.4537 5.19779 0
    endloop
  endfacet
  facet normal 0.913406 -0.296784 -0.278585
    outer loop
      vertex -22.8386 10.1684 0
      vertex -6.85159 3.05052 60
      vertex -24.4537 5.19779 0
    endloop
  endfacet
  facet normal 0.83174 -0.480206 -0.278585
    outer loop
      vertex -6.30357 3.99973 60
      vertex -6.61565 3.45919 60
      vertex -22.8386 10.1684 0
    endloop
  endfacet
  facet normal 0.83174 -0.480206 -0.278585
    outer loop
      vertex -6.06763 4.40839 60
      vertex -6.30357 3.99973 60
      vertex -22.8386 10.1684 0
    endloop
  endfacet
  facet normal 0.83174 -0.480206 -0.278585
    outer loop
      vertex -6.61565 3.45919 60
      vertex -6.85159 3.05052 60
      vertex -22.8386 10.1684 0
    endloop
  endfacet
  facet normal 0.831741 -0.480206 -0.278585
    outer loop
      vertex -20.2254 14.6946 0
      vertex -6.06763 4.40839 60
      vertex -22.8386 10.1684 0
    endloop
  endfacet
  facet normal 0.713725 -0.64264 -0.278585
    outer loop
      vertex -5.16918 5.40621 60
      vertex -5.54234 4.99178 60
      vertex -20.2254 14.6946 0
    endloop
  endfacet
  facet normal 0.713725 -0.64264 -0.278585
    outer loop
      vertex -5.01848 5.57359 60
      vertex -5.16918 5.40621 60
      vertex -20.2254 14.6946 0
    endloop
  endfacet
  facet normal 0.713725 -0.64264 -0.278585
    outer loop
      vertex -5.54234 4.99178 60
      vertex -6.06763 4.40839 60
      vertex -20.2254 14.6946 0
    endloop
  endfacet
  facet normal 0.713725 -0.642641 -0.278585
    outer loop
      vertex -16.7283 18.5786 0
      vertex -5.01848 5.57359 60
      vertex -20.2254 14.6946 0
    endloop
  endfacet
  facet normal 0.564516 -0.776989 -0.278585
    outer loop
      vertex -3.75 6.49519 60
      vertex -5.01848 5.57359 60
      vertex -16.7283 18.5786 0
    endloop
  endfacet
  facet normal 0.564516 -0.776989 -0.278585
    outer loop
      vertex -12.5 21.6506 0
      vertex -3.75 6.49519 60
      vertex -16.7283 18.5786 0
    endloop
  endfacet
  facet normal 0.390634 -0.87738 -0.278585
    outer loop
      vertex -2.31763 7.13292 60
      vertex -3.75 6.49519 60
      vertex -12.5 21.6506 0
    endloop
  endfacet
  facet normal 0.390635 -0.877379 -0.278585
    outer loop
      vertex -7.72542 23.7764 0
      vertex -2.31763 7.13292 60
      vertex -12.5 21.6506 0
    endloop
  endfacet
  facet normal 0.199681 -0.939424 -0.278585
    outer loop
      vertex -1.55184 7.2957 60
      vertex -2.09733 7.17975 60
      vertex -7.72542 23.7764 0
    endloop
  endfacet
  facet normal 0.199681 -0.939424 -0.278585
    outer loop
      vertex -0.783963 7.45891 60
      vertex -1.55184 7.2957 60
      vertex -7.72542 23.7764 0
    endloop
  endfacet
  facet normal 0.199681 -0.939424 -0.278585
    outer loop
      vertex -2.09733 7.17975 60
      vertex -2.31763 7.13292 60
      vertex -7.72542 23.7764 0
    endloop
  endfacet
  facet normal 0.199681 -0.939424 -0.278585
    outer loop
      vertex -2.61321 24.863 0
      vertex -0.783963 7.45891 60
      vertex -7.72542 23.7764 0
    endloop
  endfacet
  facet normal 0 -0.960411 -0.278585
    outer loop
      vertex 2.61321 24.863 0
      vertex 0.783963 7.45891 60
      vertex 0.31208 7.45891 60
    endloop
  endfacet
  facet normal 0 -0.960411 -0.278585
    outer loop
      vertex -0.783963 7.45891 60
      vertex 2.61321 24.863 0
      vertex -0.31208 7.45891 60
    endloop
  endfacet
  facet normal 0 -0.960411 -0.278585
    outer loop
      vertex -0.31208 7.45891 60
      vertex 2.61321 24.863 0
      vertex 0.31208 7.45891 60
    endloop
  endfacet
  facet normal 0 -0.960411 -0.278585
    outer loop
      vertex -2.61321 24.863 0
      vertex 2.61321 24.863 0
      vertex -0.783963 7.45891 60
    endloop
  endfacet
  facet normal -0.199681 -0.939424 -0.278585
    outer loop
      vertex 2.61321 24.863 0
      vertex 2.31763 7.13292 60
      vertex 2.09733 7.17975 60
    endloop
  endfacet
  facet normal -0.199681 -0.939424 -0.278585
    outer loop
      vertex 0.783963 7.45891 60
      vertex 2.61321 24.863 0
      vertex 1.55184 7.2957 60
    endloop
  endfacet
  facet normal -0.199681 -0.939424 -0.278585
    outer loop
      vertex 1.55184 7.2957 60
      vertex 2.61321 24.863 0
      vertex 2.09733 7.17975 60
    endloop
  endfacet
  facet normal -0.199681 -0.939424 -0.278585
    outer loop
      vertex 2.61321 24.863 0
      vertex 7.72542 23.7764 0
      vertex 2.31763 7.13292 60
    endloop
  endfacet
  facet normal -0.390634 -0.87738 -0.278585
    outer loop
      vertex 7.72542 23.7764 0
      vertex 3.75 6.49519 60
      vertex 2.31763 7.13292 60
    endloop
  endfacet
  facet normal -0.390635 -0.877379 -0.278585
    outer loop
      vertex 7.72542 23.7764 0
      vertex 12.5 21.6506 0
      vertex 3.75 6.49519 60
    endloop
  endfacet
  facet normal -0.564516 -0.776989 -0.278585
    outer loop
      vertex 12.5 21.6506 0
      vertex 5.01848 5.57359 60
      vertex 3.75 6.49519 60
    endloop
  endfacet
  facet normal -0.564516 -0.776989 -0.278585
    outer loop
      vertex 12.5 21.6506 0
      vertex 16.7283 18.5786 0
      vertex 5.01848 5.57359 60
    endloop
  endfacet
  facet normal -0.713725 -0.64264 -0.278585
    outer loop
      vertex 6.06763 4.40839 60
      vertex 5.54234 4.99178 60
      vertex 16.7283 18.5786 0
    endloop
  endfacet
  facet normal -0.713725 -0.64264 -0.278585
    outer loop
      vertex 16.7283 18.5786 0
      vertex 5.54234 4.99178 60
      vertex 5.16918 5.40621 60
    endloop
  endfacet
  facet normal -0.713725 -0.64264 -0.278585
    outer loop
      vertex 16.7283 18.5786 0
      vertex 5.16918 5.40621 60
      vertex 5.01848 5.57359 60
    endloop
  endfacet
  facet normal -0.713725 -0.642641 -0.278585
    outer loop
      vertex 16.7283 18.5786 0
      vertex 20.2254 14.6946 0
      vertex 6.06763 4.40839 60
    endloop
  endfacet
  facet normal -0.83174 -0.480206 -0.278585
    outer loop
      vertex 6.85159 3.05052 60
      vertex 6.61565 3.45919 60
      vertex 20.2254 14.6946 0
    endloop
  endfacet
  facet normal -0.83174 -0.480206 -0.278585
    outer loop
      vertex 20.2254 14.6946 0
      vertex 6.61565 3.45919 60
      vertex 6.30357 3.99973 60
    endloop
  endfacet
  facet normal -0.83174 -0.480206 -0.278585
    outer loop
      vertex 20.2254 14.6946 0
      vertex 6.30357 3.99973 60
      vertex 6.06763 4.40839 60
    endloop
  endfacet
  facet normal -0.831741 -0.480206 -0.278585
    outer loop
      vertex 20.2254 14.6946 0
      vertex 22.8386 10.1684 0
      vertex 6.85159 3.05052 60
    endloop
  endfacet
  facet normal -0.913406 -0.296783 -0.278585
    outer loop
      vertex 7.33611 1.55934 60
      vertex 7.26651 1.77354 60
      vertex 22.8386 10.1684 0
    endloop
  endfacet
  facet normal -0.913406 -0.296783 -0.278585
    outer loop
      vertex 22.8386 10.1684 0
      vertex 7.26651 1.77354 60
      vertex 7.09418 2.30391 60
    endloop
  endfacet
  facet normal -0.913406 -0.296783 -0.278585
    outer loop
      vertex 22.8386 10.1684 0
      vertex 7.09418 2.30391 60
      vertex 6.85159 3.05052 60
    endloop
  endfacet
  facet normal -0.913406 -0.296784 -0.278585
    outer loop
      vertex 22.8386 10.1684 0
      vertex 24.4537 5.19779 0
      vertex 7.33611 1.55934 60
    endloop
  endfacet
  facet normal -0.95515 -0.10039 -0.278585
    outer loop
      vertex 24.4537 5.19779 0
      vertex 7.5 0 60
      vertex 7.33611 1.55934 60
    endloop
  endfacet
  facet normal -0.95515 -0.10039 -0.278585
    outer loop
      vertex 24.4537 5.19779 0
      vertex 25 0 0
      vertex 7.5 0 60
    endloop
  endfacet
  facet normal -0.95515 0.10039 -0.278585
    outer loop
      vertex 7.5 0 60
      vertex 25 0 0
      vertex 7.33611 -1.55934 60
    endloop
  endfacet
  facet normal -0.95515 0.10039 -0.278585
    outer loop
      vertex 25 0 0
      vertex 24.4537 -5.19779 0
      vertex 7.33611 -1.55934 60
    endloop
  endfacet
  facet normal -0.913406 0.296783 -0.278585
    outer loop
      vertex 7.33611 -1.55934 60
      vertex 24.4537 -5.19779 0
      vertex 7.26651 -1.77354 60
    endloop
  endfacet
  facet normal -0.913406 0.296783 -0.278585
    outer loop
      vertex 7.26651 -1.77354 60
      vertex 24.4537 -5.19779 0
      vertex 7.09418 -2.30391 60
    endloop
  endfacet
  facet normal -0.913406 0.296783 -0.278585
    outer loop
      vertex 7.09418 -2.30391 60
      vertex 24.4537 -5.19779 0
      vertex 6.85159 -3.05052 60
    endloop
  endfacet
  facet normal -0.913406 0.296784 -0.278585
    outer loop
      vertex 24.4537 -5.19779 0
      vertex 22.8386 -10.1684 0
      vertex 6.85159 -3.05052 60
    endloop
  endfacet
  facet normal -0.83174 0.480206 -0.278585
    outer loop
      vertex 6.85159 -3.05052 60
      vertex 22.8386 -10.1684 0
      vertex 6.61565 -3.45919 60
    endloop
  endfacet
  facet normal -0.83174 0.480206 -0.278585
    outer loop
      vertex 6.61565 -3.45919 60
      vertex 22.8386 -10.1684 0
      vertex 6.30357 -3.99973 60
    endloop
  endfacet
  facet normal -0.83174 0.480206 -0.278585
    outer loop
      vertex 6.30357 -3.99973 60
      vertex 22.8386 -10.1684 0
      vertex 6.06763 -4.40839 60
    endloop
  endfacet
  facet normal -0.831741 0.480206 -0.278585
    outer loop
      vertex 22.8386 -10.1684 0
      vertex 20.2254 -14.6946 0
      vertex 6.06763 -4.40839 60
    endloop
  endfacet
  facet normal -0.713725 0.64264 -0.278585
    outer loop
      vertex 6.06763 -4.40839 60
      vertex 20.2254 -14.6946 0
      vertex 5.54234 -4.99178 60
    endloop
  endfacet
  facet normal -0.713725 0.64264 -0.278585
    outer loop
      vertex 5.54234 -4.99178 60
      vertex 20.2254 -14.6946 0
      vertex 5.16918 -5.40621 60
    endloop
  endfacet
  facet normal -0.713725 0.64264 -0.278585
    outer loop
      vertex 5.16918 -5.40621 60
      vertex 20.2254 -14.6946 0
      vertex 5.01848 -5.57359 60
    endloop
  endfacet
  facet normal -0.713725 0.642641 -0.278585
    outer loop
      vertex 20.2254 -14.6946 0
      vertex 16.7283 -18.5786 0
      vertex 5.01848 -5.57359 60
    endloop
  endfacet
  facet normal -0.564516 0.776989 -0.278585
    outer loop
      vertex 5.01848 -5.57359 60
      vertex 16.7283 -18.5786 0
      vertex 3.75 -6.49519 60
    endloop
  endfacet
  facet normal -0.564516 0.776989 -0.278585
    outer loop
      vertex 16.7283 -18.5786 0
      vertex 12.5 -21.6506 0
      vertex 3.75 -6.49519 60
    endloop
  endfacet
  facet normal -0.390634 0.87738 -0.278585
    outer loop
      vertex 3.75 -6.49519 60
      vertex 12.5 -21.6506 0
      vertex 2.31763 -7.13292 60
    endloop
  endfacet
  facet normal -0.390635 0.877379 -0.278585
    outer loop
      vertex 12.5 -21.6506 0
      vertex 7.72542 -23.7764 0
      vertex 2.31763 -7.13292 60
    endloop
  endfacet
  facet normal -0.199681 0.939424 -0.278585
    outer loop
      vertex 2.31763 -7.13292 60
      vertex 7.72542 -23.7764 0
      vertex 2.09733 -7.17975 60
    endloop
  endfacet
  facet normal -0.199681 0.939424 -0.278585
    outer loop
      vertex 2.09733 -7.17975 60
      vertex 7.72542 -23.7764 0
      vertex 1.55184 -7.2957 60
    endloop
  endfacet
  facet normal -0.199681 0.939424 -0.278585
    outer loop
      vertex 1.55184 -7.2957 60
      vertex 7.72542 -23.7764 0
      vertex 0.783963 -7.45891 60
    endloop
  endfacet
  facet normal -0.199681 0.939424 -0.278585
    outer loop
      vertex 7.72542 -23.7764 0
      vertex 2.61321 -24.863 0
      vertex 0.783963 -7.45891 60
    endloop
  endfacet
  facet normal 0 0.960411 -0.278585
    outer loop
      vertex 0.31208 -7.45891 60
      vertex 2.61321 -24.863 0
      vertex -0.31208 -7.45891 60
    endloop
  endfacet
  facet normal 0 0.960411 -0.278585
    outer loop
      vertex -0.31208 -7.45891 60
      vertex 2.61321 -24.863 0
      vertex -0.783963 -7.45891 60
    endloop
  endfacet
  facet normal 0 0.960411 -0.278585
    outer loop
      vertex 0.783963 -7.45891 60
      vertex 2.61321 -24.863 0
      vertex 0.31208 -7.45891 60
    endloop
  endfacet
  facet normal 0 0.960411 -0.278585
    outer loop
      vertex -0.783963 -7.45891 60
      vertex 2.61321 -24.863 0
      vertex -2.61321 -24.863 0
    endloop
  endfacet
  facet normal 0.199681 0.939424 -0.278585
    outer loop
      vertex -1.55184 -7.2957 60
      vertex -2.61321 -24.863 0
      vertex -2.09733 -7.17975 60
    endloop
  endfacet
  facet normal 0.199681 0.939424 -0.278585
    outer loop
      vertex -2.09733 -7.17975 60
      vertex -2.61321 -24.863 0
      vertex -2.31763 -7.13292 60
    endloop
  endfacet
  facet normal 0.199681 0.939424 -0.278585
    outer loop
      vertex -0.783963 -7.45891 60
      vertex -2.61321 -24.863 0
      vertex -1.55184 -7.2957 60
    endloop
  endfacet
  facet normal 0.199681 0.939424 -0.278585
    outer loop
      vertex -2.31763 -7.13292 60
      vertex -2.61321 -24.863 0
      vertex -7.72542 -23.7764 0
    endloop
  endfacet
  facet normal 0.390634 0.87738 -0.278585
    outer loop
      vertex -3.75 -6.49519 60
      vertex -2.31763 -7.13292 60
      vertex -7.72542 -23.7764 0
    endloop
  endfacet
  facet normal 0.390635 0.877379 -0.278585
    outer loop
      vertex -3.75 -6.49519 60
      vertex -7.72542 -23.7764 0
      vertex -12.5 -21.6506 0
    endloop
  endfacet
  facet normal 0.564516 0.776989 -0.278585
    outer loop
      vertex -5.01848 -5.57359 60
      vertex -3.75 -6.49519 60
      vertex -12.5 -21.6506 0
    endloop
  endfacet
  facet normal 0.564516 0.776989 -0.278585
    outer loop
      vertex -5.01848 -5.57359 60
      vertex -12.5 -21.6506 0
      vertex -16.7283 -18.5786 0
    endloop
  endfacet
  facet normal 0.713725 0.64264 -0.278585
    outer loop
      vertex -5.54234 -4.99178 60
      vertex -5.16918 -5.40621 60
      vertex -16.7283 -18.5786 0
    endloop
  endfacet
  facet normal 0.713725 0.64264 -0.278585
    outer loop
      vertex -6.06763 -4.40839 60
      vertex -5.54234 -4.99178 60
      vertex -16.7283 -18.5786 0
    endloop
  endfacet
  facet normal 0.713725 0.64264 -0.278585
    outer loop
      vertex -5.16918 -5.40621 60
      vertex -5.01848 -5.57359 60
      vertex -16.7283 -18.5786 0
    endloop
  endfacet
  facet normal 0.713725 0.642641 -0.278585
    outer loop
      vertex -6.06763 -4.40839 60
      vertex -16.7283 -18.5786 0
      vertex -20.2254 -14.6946 0
    endloop
  endfacet
  facet normal 0.83174 0.480206 -0.278585
    outer loop
      vertex -6.61565 -3.45919 60
      vertex -6.30357 -3.99973 60
      vertex -20.2254 -14.6946 0
    endloop
  endfacet
  facet normal 0.83174 0.480206 -0.278585
    outer loop
      vertex -6.85159 -3.05052 60
      vertex -6.61565 -3.45919 60
      vertex -20.2254 -14.6946 0
    endloop
  endfacet
  facet normal 0.83174 0.480206 -0.278585
    outer loop
      vertex -6.30357 -3.99973 60
      vertex -6.06763 -4.40839 60
      vertex -20.2254 -14.6946 0
    endloop
  endfacet
  facet normal 0.831741 0.480206 -0.278585
    outer loop
      vertex -6.85159 -3.05052 60
      vertex -20.2254 -14.6946 0
      vertex -22.8386 -10.1684 0
    endloop
  endfacet
  facet normal 0.913406 0.296783 -0.278585
    outer loop
      vertex -7.26651 -1.77354 60
      vertex -7.09418 -2.30391 60
      vertex -22.8386 -10.1684 0
    endloop
  endfacet
  facet normal 0.913406 0.296783 -0.278585
    outer loop
      vertex -7.33611 -1.55934 60
      vertex -7.26651 -1.77354 60
      vertex -22.8386 -10.1684 0
    endloop
  endfacet
  facet normal 0.913406 0.296783 -0.278585
    outer loop
      vertex -7.09418 -2.30391 60
      vertex -6.85159 -3.05052 60
      vertex -22.8386 -10.1684 0
    endloop
  endfacet
  facet normal 0.913406 0.296784 -0.278585
    outer loop
      vertex -7.33611 -1.55934 60
      vertex -22.8386 -10.1684 0
      vertex -24.4537 -5.19779 0
    endloop
  endfacet
  facet normal 0.95515 0.10039 -0.278585
    outer loop
      vertex -7.5 0 60
      vertex -7.33611 -1.55934 60
      vertex -24.4537 -5.19779 0
    endloop
  endfacet
  facet normal 0.951057 -0.309017 0
    outer loop
      vertex 27.5729 1.76336 0
      vertex 27.5729 1.76336 2
      vertex 27 0 2
    endloop
  endfacet
  facet normal 0.951057 -0.309017 0
    outer loop
      vertex 27 0 0
      vertex 27.5729 1.76336 0
      vertex 27 0 2
    endloop
  endfacet
  facet normal 0.951057 0.309017 0
    outer loop
      vertex 27 0 2
      vertex 27.5729 -1.76336 2
      vertex 27.5729 -1.76336 0
    endloop
  endfacet
  facet normal 0.951057 0.309017 0
    outer loop
      vertex 27 0 0
      vertex 27 0 2
      vertex 27.5729 -1.76336 0
    endloop
  endfacet
  facet normal 0.587785 -0.809017 0
    outer loop
      vertex 29.0729 2.85317 0
      vertex 29.0729 2.85317 2
      vertex 27.5729 1.76336 2
    endloop
  endfacet
  facet normal 0.587785 -0.809017 0
    outer loop
      vertex 27.5729 1.76336 0
      vertex 29.0729 2.85317 0
      vertex 27.5729 1.76336 2
    endloop
  endfacet
  facet normal 0 -1 0
    outer loop
      vertex 30.9271 2.85317 0
      vertex 30.9271 2.85317 2
      vertex 29.0729 2.85317 2
    endloop
  endfacet
  facet normal 0 -1 0
    outer loop
      vertex 29.0729 2.85317 0
      vertex 30.9271 2.85317 0
      vertex 29.0729 2.85317 2
    endloop
  endfacet
  facet normal -0.587785 -0.809017 0
    outer loop
      vertex 32.4271 1.76336 0
      vertex 32.4271 1.76336 2
      vertex 30.9271 2.85317 2
    endloop
  endfacet
  facet normal -0.587785 -0.809017 0
    outer loop
      vertex 30.9271 2.85317 0
      vertex 32.4271 1.76336 0
      vertex 30.9271 2.85317 2
    endloop
  endfacet
  facet normal -0.951057 -0.309017 0
    outer loop
      vertex 33 0 2
      vertex 32.4271 1.76336 2
      vertex 33 0 0
    endloop
  endfacet
  facet normal -0.951057 -0.309017 0
    outer loop
      vertex 33 0 0
      vertex 32.4271 1.76336 2
      vertex 32.4271 1.76336 0
    endloop
  endfacet
  facet normal -0.951057 0.309017 0
    outer loop
      vertex 33 0 2
      vertex 33 0 0
      vertex 32.4271 -1.76336 2
    endloop
  endfacet
  facet normal -0.951057 0.309017 0
    outer loop
      vertex 32.4271 -1.76336 2
      vertex 33 0 0
      vertex 32.4271 -1.76336 0
    endloop
  endfacet
  facet normal -0.587785 0.809017 0
    outer loop
      vertex 32.4271 -1.76336 2
      vertex 32.4271 -1.76336 0
      vertex 30.9271 -2.85317 2
    endloop
  endfacet
  facet normal -0.587785 0.809017 0
    outer loop
      vertex 30.9271 -2.85317 2
      vertex 32.4271 -1.76336 0
      vertex 30.9271 -2.85317 0
    endloop
  endfacet
  facet normal 0 1 0
    outer loop
      vertex 30.9271 -2.85317 2
      vertex 30.9271 -2.85317 0
      vertex 29.0729 -2.85317 2
    endloop
  endfacet
  facet normal 0 1 0
    outer loop
      vertex 29.0729 -2.85317 2
      vertex 30.9271 -2.85317 0
      vertex 29.0729 -2.85317 0
    endloop
  endfacet
  facet normal 0.587785 0.809017 0
    outer loop
      vertex 29.0729 -2.85317 2
      vertex 29.0729 -2.85317 0
      vertex 27.5729 -1.76336 2
    endloop
  endfacet
  facet normal 0.587785 0.809017 0
    outer loop
      vertex 27.5729 -1.76336 2
      vertex 29.0729 -2.85317 0
      vertex 27.5729 -1.76336 0
    endloop
  endfacet
  facet normal -0.994215 0.104496 0.0248554
    outer loop
      vertex -9.2924 1.97516 60
      vertex -9.5 0 60
      vertex -8.31425 1.76725 100
    endloop
  endfacet
  facet normal -0.950763 0.308921 0.0248554
    outer loop
      vertex -8.67868 3.864 60
      vertex -9.2924 1.97516 60
      vertex -7.76514 3.45726 100
    endloop
  endfacet
  facet normal -0.950763 0.308922 0.0248554
    outer loop
      vertex -7.76514 3.45726 100
      vertex -9.2924 1.97516 60
      vertex -8.31425 1.76725 100
    endloop
  endfacet
  facet normal -0.994215 0.104496 0.0248554
    outer loop
      vertex -8.31425 1.76725 100
      vertex -9.5 0 60
      vertex -8.5 0 100
    endloop
  endfacet
  facet normal -0.994215 -0.104496 0.0248554
    outer loop
      vertex -8.5 0 100
      vertex -9.5 0 60
      vertex -9.2924 -1.97516 60
    endloop
  endfacet
  facet normal -0.994215 -0.104496 0.0248554
    outer loop
      vertex -8.5 0 100
      vertex -9.2924 -1.97516 60
      vertex -8.31425 -1.76725 100
    endloop
  endfacet
  facet normal -0.950763 -0.308921 0.0248554
    outer loop
      vertex -8.31425 -1.76725 100
      vertex -9.2924 -1.97516 60
      vertex -8.67868 -3.864 60
    endloop
  endfacet
  facet normal -0.950763 -0.308922 0.0248554
    outer loop
      vertex -8.31425 -1.76725 100
      vertex -8.67868 -3.864 60
      vertex -7.76514 -3.45726 100
    endloop
  endfacet
  facet normal -0.865758 -0.499846 0.0248554
    outer loop
      vertex -7.76514 -3.45726 100
      vertex -8.67868 -3.864 60
      vertex -7.68566 -5.58396 60
    endloop
  endfacet
  facet normal -0.865758 -0.499845 0.0248554
    outer loop
      vertex -6.87664 -4.99618 100
      vertex -7.76514 -3.45726 100
      vertex -7.68566 -5.58396 60
    endloop
  endfacet
  facet normal -0.742915 -0.668924 0.0248554
    outer loop
      vertex -6.87664 -4.99618 100
      vertex -7.68566 -5.58396 60
      vertex -6.35674 -7.05988 60
    endloop
  endfacet
  facet normal -0.742915 -0.668924 0.0248554
    outer loop
      vertex -5.68761 -6.31673 100
      vertex -6.87664 -4.99618 100
      vertex -6.35674 -7.05988 60
    endloop
  endfacet
  facet normal -0.587603 -0.808767 0.0248554
    outer loop
      vertex -5.68761 -6.31673 100
      vertex -6.35674 -7.05988 60
      vertex -4.75 -8.22724 60
    endloop
  endfacet
  facet normal -0.587604 -0.808767 0.0248554
    outer loop
      vertex -4.25 -7.36122 100
      vertex -5.68761 -6.31673 100
      vertex -4.75 -8.22724 60
    endloop
  endfacet
  facet normal -0.406611 -0.913263 0.0248554
    outer loop
      vertex -4.25 -7.36122 100
      vertex -4.75 -8.22724 60
      vertex -2.93566 -9.03504 60
    endloop
  endfacet
  facet normal -0.406611 -0.913263 0.0248554
    outer loop
      vertex -2.62664 -8.08398 100
      vertex -4.25 -7.36122 100
      vertex -2.93566 -9.03504 60
    endloop
  endfacet
  facet normal -0.207847 -0.977845 0.0248554
    outer loop
      vertex -2.62664 -8.08398 100
      vertex -2.93566 -9.03504 60
      vertex -0.99302 -9.44796 60
    endloop
  endfacet
  facet normal -0.207848 -0.977845 0.0248554
    outer loop
      vertex -0.888492 -8.45344 100
      vertex -2.62664 -8.08398 100
      vertex -0.99302 -9.44796 60
    endloop
  endfacet
  facet normal 0 -0.999691 0.0248554
    outer loop
      vertex -0.888492 -8.45344 100
      vertex -0.99302 -9.44796 60
      vertex 0.99302 -9.44796 60
    endloop
  endfacet
  facet normal 0 -0.999691 0.0248554
    outer loop
      vertex 0.888492 -8.45344 100
      vertex -0.888492 -8.45344 100
      vertex 0.99302 -9.44796 60
    endloop
  endfacet
  facet normal 0.207847 -0.977845 0.0248554
    outer loop
      vertex 2.93566 -9.03504 60
      vertex 0.888492 -8.45344 100
      vertex 0.99302 -9.44796 60
    endloop
  endfacet
  facet normal 0.207848 -0.977845 0.0248554
    outer loop
      vertex 2.62664 -8.08398 100
      vertex 0.888492 -8.45344 100
      vertex 2.93566 -9.03504 60
    endloop
  endfacet
  facet normal 0.406611 -0.913263 0.0248554
    outer loop
      vertex 4.75 -8.22724 60
      vertex 2.62664 -8.08398 100
      vertex 2.93566 -9.03504 60
    endloop
  endfacet
  facet normal 0.406611 -0.913263 0.0248554
    outer loop
      vertex 4.25 -7.36122 100
      vertex 2.62664 -8.08398 100
      vertex 4.75 -8.22724 60
    endloop
  endfacet
  facet normal 0.587603 -0.808767 0.0248554
    outer loop
      vertex 6.35674 -7.05988 60
      vertex 4.25 -7.36122 100
      vertex 4.75 -8.22724 60
    endloop
  endfacet
  facet normal 0.587604 -0.808767 0.0248554
    outer loop
      vertex 5.68761 -6.31673 100
      vertex 4.25 -7.36122 100
      vertex 6.35674 -7.05988 60
    endloop
  endfacet
  facet normal 0.742915 -0.668924 0.0248554
    outer loop
      vertex 7.68566 -5.58396 60
      vertex 5.68761 -6.31673 100
      vertex 6.35674 -7.05988 60
    endloop
  endfacet
  facet normal 0.742915 -0.668924 0.0248554
    outer loop
      vertex 6.87664 -4.99618 100
      vertex 5.68761 -6.31673 100
      vertex 7.68566 -5.58396 60
    endloop
  endfacet
  facet normal 0.865758 -0.499846 0.0248554
    outer loop
      vertex 8.67868 -3.864 60
      vertex 6.87664 -4.99618 100
      vertex 7.68566 -5.58396 60
    endloop
  endfacet
  facet normal 0.865758 -0.499845 0.0248554
    outer loop
      vertex 7.76514 -3.45726 100
      vertex 6.87664 -4.99618 100
      vertex 8.67868 -3.864 60
    endloop
  endfacet
  facet normal 0.950763 -0.308921 0.0248554
    outer loop
      vertex 9.2924 -1.97516 60
      vertex 7.76514 -3.45726 100
      vertex 8.67868 -3.864 60
    endloop
  endfacet
  facet normal 0.950763 -0.308922 0.0248554
    outer loop
      vertex 8.31425 -1.76725 100
      vertex 7.76514 -3.45726 100
      vertex 9.2924 -1.97516 60
    endloop
  endfacet
  facet normal 0.994215 -0.104496 0.0248554
    outer loop
      vertex 9.5 0 60
      vertex 8.31425 -1.76725 100
      vertex 9.2924 -1.97516 60
    endloop
  endfacet
  facet normal 0.95515 -0.10039 0.278585
    outer loop
      vertex 9.5 0 60
      vertex 9.2924 -1.97516 60
      vertex 26.4097 -0.0658387 2
    endloop
  endfacet
  facet normal 0.95515 -0.10039 0.278585
    outer loop
      vertex 26.4167 0 2
      vertex 9.5 0 60
      vertex 26.4097 -0.0658387 2
    endloop
  endfacet
  facet normal 0 0 1
    outer loop
      vertex 27.5729 -1.76336 2
      vertex 25.8911 -5 2
      vertex 30.5 -5 2
    endloop
  endfacet
  facet normal 0 0 1
    outer loop
      vertex 32.4271 -1.76336 2
      vertex 30.9271 -2.85317 2
      vertex 33.5355 -3.53553 2
    endloop
  endfacet
  facet normal 0 0 1
    outer loop
      vertex 33 0 2
      vertex 32.4271 -1.76336 2
      vertex 34.6194 -1.91342 2
    endloop
  endfacet
  facet normal 0 0 1
    outer loop
      vertex 32.4271 1.76336 2
      vertex 33 0 2
      vertex 34.6194 1.91342 2
    endloop
  endfacet
  facet normal 0 0 1
    outer loop
      vertex 30.9271 2.85317 2
      vertex 32.4271 1.76336 2
      vertex 33.5355 3.53553 2
    endloop
  endfacet
  facet normal 0 0 1
    outer loop
      vertex 27.5729 1.76336 2
      vertex 29.0729 2.85317 2
      vertex 30.5 4.90054 2
    endloop
  endfacet
  facet normal 0 0 1
    outer loop
      vertex 29.0729 2.85317 2
      vertex 30.9271 2.85317 2
      vertex 31.9134 4.6194 2
    endloop
  endfacet
  facet normal 0 0 1
    outer loop
      vertex 33 0 2
      vertex 34.6194 -1.91342 2
      vertex 35 0 2
    endloop
  endfacet
  facet normal 0 0 1
    outer loop
      vertex 26.4097 -0.0658387 2
      vertex 25.8911 -5 2
      vertex 27.5729 -1.76336 2
    endloop
  endfacet
  facet normal 0 0 1
    outer loop
      vertex 25.8911 5 2
      vertex 27.5729 1.76336 2
      vertex 30.5 5 2
    endloop
  endfacet
  facet normal 0 0 1
    outer loop
      vertex 25.8911 5 2
      vertex 26.4167 0 2
      vertex 27.5729 1.76336 2
    endloop
  endfacet
  facet normal 0 0 1
    outer loop
      vertex 30.5 4.90054 2
      vertex 29.0729 2.85317 2
      vertex 31.9134 4.6194 2
    endloop
  endfacet
  facet normal 0 0 1
    outer loop
      vertex 31.9134 4.6194 2
      vertex 30.9271 2.85317 2
      vertex 33.5355 3.53553 2
    endloop
  endfacet
  facet normal 0 0 1
    outer loop
      vertex 33.5355 3.53553 2
      vertex 32.4271 1.76336 2
      vertex 34.6194 1.91342 2
    endloop
  endfacet
  facet normal 0 0 1
    outer loop
      vertex 34.6194 1.91342 2
      vertex 33 0 2
      vertex 35 0 2
    endloop
  endfacet
  facet normal 0 0 1
    outer loop
      vertex 27.5729 1.76336 2
      vertex 30.5 4.90054 2
      vertex 30.5 5 2
    endloop
  endfacet
  facet normal 0 0 1
    outer loop
      vertex 34.6194 -1.91342 2
      vertex 32.4271 -1.76336 2
      vertex 33.5355 -3.53553 2
    endloop
  endfacet
  facet normal 0 0 1
    outer loop
      vertex 33.5355 -3.53553 2
      vertex 30.9271 -2.85317 2
      vertex 31.9134 -4.6194 2
    endloop
  endfacet
  facet normal 0 0 1
    outer loop
      vertex 31.9134 -4.6194 2
      vertex 29.0729 -2.85317 2
      vertex 30.5 -4.90054 2
    endloop
  endfacet
  facet normal 0 0 1
    outer loop
      vertex 27 0 2
      vertex 26.4167 0 2
      vertex 26.4097 -0.0658387 2
    endloop
  endfacet
  facet normal 0 0 1
    outer loop
      vertex 29.0729 -2.85317 2
      vertex 30.5 -5 2
      vertex 30.5 -4.90054 2
    endloop
  endfacet
  facet normal 0 0 1
    outer loop
      vertex 29.0729 -2.85317 2
      vertex 27.5729 -1.76336 2
      vertex 30.5 -5 2
    endloop
  endfacet
  facet normal 0 0 1
    outer loop
      vertex 30.9271 -2.85317 2
      vertex 29.0729 -2.85317 2
      vertex 31.9134 -4.6194 2
    endloop
  endfacet
  facet normal 0 0 1
    outer loop
      vertex 27.5729 -1.76336 2
      vertex 27 0 2
      vertex 26.4097 -0.0658387 2
    endloop
  endfacet
  facet normal 0 0 1
    outer loop
      vertex 27 0 2
      vertex 27.5729 1.76336 2
      vertex 26.4167 0 2
    endloop
  endfacet
  facet normal 0.994215 -0.104496 0.0248554
    outer loop
      vertex 8.5 0 100
      vertex 8.31425 -1.76725 100
      vertex 9.5 0 60
    endloop
  endfacet
  facet normal 0.994215 0.104496 0.0248554
    outer loop
      vertex 9.2924 1.97516 60
      vertex 8.5 0 100
      vertex 9.5 0 60
    endloop
  endfacet
  facet normal 0.950763 0.308921 0.0248554
    outer loop
      vertex 8.67868 3.864 60
      vertex 8.31425 1.76725 100
      vertex 9.2924 1.97516 60
    endloop
  endfacet
  facet normal 0.994215 0.104496 0.0248554
    outer loop
      vertex 9.2924 1.97516 60
      vertex 8.31425 1.76725 100
      vertex 8.5 0 100
    endloop
  endfacet
  facet normal 0.865758 0.499846 0.0248554
    outer loop
      vertex 8.67868 3.864 60
      vertex 7.68566 5.58396 60
      vertex 7.76514 3.45726 100
    endloop
  endfacet
  facet normal 0.950763 0.308922 0.0248554
    outer loop
      vertex 8.67868 3.864 60
      vertex 7.76514 3.45726 100
      vertex 8.31425 1.76725 100
    endloop
  endfacet
  facet normal 0.742915 0.668924 0.0248554
    outer loop
      vertex 7.68566 5.58396 60
      vertex 6.35674 7.05988 60
      vertex 6.87664 4.99618 100
    endloop
  endfacet
  facet normal 0.865758 0.499845 0.0248554
    outer loop
      vertex 7.68566 5.58396 60
      vertex 6.87664 4.99618 100
      vertex 7.76514 3.45726 100
    endloop
  endfacet
  facet normal 0.587603 0.808767 0.0248554
    outer loop
      vertex 6.35674 7.05988 60
      vertex 4.75 8.22724 60
      vertex 5.68761 6.31673 100
    endloop
  endfacet
  facet normal 0.742915 0.668924 0.0248554
    outer loop
      vertex 6.35674 7.05988 60
      vertex 5.68761 6.31673 100
      vertex 6.87664 4.99618 100
    endloop
  endfacet
  facet normal 0.406611 0.913263 0.0248554
    outer loop
      vertex 4.75 8.22724 60
      vertex 2.93566 9.03504 60
      vertex 4.25 7.36122 100
    endloop
  endfacet
  facet normal 0.587604 0.808767 0.0248554
    outer loop
      vertex 4.75 8.22724 60
      vertex 4.25 7.36122 100
      vertex 5.68761 6.31673 100
    endloop
  endfacet
  facet normal 0.207847 0.977845 0.0248554
    outer loop
      vertex 2.93566 9.03504 60
      vertex 0.99302 9.44796 60
      vertex 2.62664 8.08398 100
    endloop
  endfacet
  facet normal 0.406611 0.913263 0.0248554
    outer loop
      vertex 2.93566 9.03504 60
      vertex 2.62664 8.08398 100
      vertex 4.25 7.36122 100
    endloop
  endfacet
  facet normal 0 0.999691 0.0248554
    outer loop
      vertex -0.99302 9.44796 60
      vertex -0.888492 8.45344 100
      vertex 0.99302 9.44796 60
    endloop
  endfacet
  facet normal 0 0.999691 0.0248554
    outer loop
      vertex 0.99302 9.44796 60
      vertex -0.888492 8.45344 100
      vertex 0.888492 8.45344 100
    endloop
  endfacet
  facet normal 0.207848 0.977845 0.0248554
    outer loop
      vertex 0.99302 9.44796 60
      vertex 0.888492 8.45344 100
      vertex 2.62664 8.08398 100
    endloop
  endfacet
  facet normal -0.207847 0.977845 0.0248554
    outer loop
      vertex -0.99302 9.44796 60
      vertex -2.93566 9.03504 60
      vertex -0.888492 8.45344 100
    endloop
  endfacet
  facet normal -0.406611 0.913263 0.0248554
    outer loop
      vertex -2.93566 9.03504 60
      vertex -4.75 8.22724 60
      vertex -2.62664 8.08398 100
    endloop
  endfacet
  facet normal -0.207848 0.977845 0.0248554
    outer loop
      vertex -0.888492 8.45344 100
      vertex -2.93566 9.03504 60
      vertex -2.62664 8.08398 100
    endloop
  endfacet
  facet normal -0.587603 0.808767 0.0248554
    outer loop
      vertex -4.75 8.22724 60
      vertex -6.35674 7.05988 60
      vertex -4.25 7.36122 100
    endloop
  endfacet
  facet normal -0.406611 0.913263 0.0248554
    outer loop
      vertex -2.62664 8.08398 100
      vertex -4.75 8.22724 60
      vertex -4.25 7.36122 100
    endloop
  endfacet
  facet normal -0.742915 0.668924 0.0248554
    outer loop
      vertex -6.35674 7.05988 60
      vertex -7.68566 5.58396 60
      vertex -5.68761 6.31673 100
    endloop
  endfacet
  facet normal -0.587604 0.808767 0.0248554
    outer loop
      vertex -4.25 7.36122 100
      vertex -6.35674 7.05988 60
      vertex -5.68761 6.31673 100
    endloop
  endfacet
  facet normal -0.865758 0.499846 0.0248554
    outer loop
      vertex -7.68566 5.58396 60
      vertex -8.67868 3.864 60
      vertex -6.87664 4.99618 100
    endloop
  endfacet
  facet normal -0.742915 0.668924 0.0248554
    outer loop
      vertex -5.68761 6.31673 100
      vertex -7.68566 5.58396 60
      vertex -6.87664 4.99618 100
    endloop
  endfacet
  facet normal -0.865758 0.499845 0.0248554
    outer loop
      vertex -6.87664 4.99618 100
      vertex -8.67868 3.864 60
      vertex -7.76514 3.45726 100
    endloop
  endfacet
  facet normal 0.99114 -0.130486 -0.0247785
    outer loop
      vertex -6.27852 1.68232 100
      vertex -6.5 0 100
      vertex -7.5 0 60
    endloop
  endfacet
  facet normal 0.99114 -0.130486 -0.0247785
    outer loop
      vertex -7.26651 1.77354 60
      vertex -7.24444 1.94114 60
      vertex -6.27852 1.68232 100
    endloop
  endfacet
  facet normal 0.99114 -0.130486 -0.0247785
    outer loop
      vertex -7.5 0 60
      vertex -7.26651 1.77354 60
      vertex -6.27852 1.68232 100
    endloop
  endfacet
  facet normal 0 0 -1
    outer loop
      vertex -7.26651 1.77354 60
      vertex -7.5 0 60
      vertex -7.33611 1.55934 60
    endloop
  endfacet
  facet normal 0 0 -1
    outer loop
      vertex -7.33611 -1.55934 60
      vertex -7.5 0 60
      vertex -7.26651 -1.77354 60
    endloop
  endfacet
  facet normal 0.99114 0.130486 -0.0247785
    outer loop
      vertex -6.5 0 100
      vertex -7.24444 -1.94114 60
      vertex -7.26651 -1.77354 60
    endloop
  endfacet
  facet normal 0.99114 0.130486 -0.0247785
    outer loop
      vertex -7.5 0 60
      vertex -6.5 0 100
      vertex -7.26651 -1.77354 60
    endloop
  endfacet
  facet normal 0 0 -1
    outer loop
      vertex -6.61565 3.45919 60
      vertex -7.09418 2.30391 60
      vertex -6.85159 3.05052 60
    endloop
  endfacet
  facet normal 0 0 1
    outer loop
      vertex -7.09418 2.30391 60
      vertex -7.24444 1.94114 60
      vertex -7.26651 1.77354 60
    endloop
  endfacet
  facet normal 0.923596 -0.382566 -0.0247785
    outer loop
      vertex -6.61565 3.45919 60
      vertex -6.49519 3.75 60
      vertex -5.62916 3.25 100
    endloop
  endfacet
  facet normal 0.923596 -0.382566 -0.0247785
    outer loop
      vertex -7.09418 2.30391 60
      vertex -6.61565 3.45919 60
      vertex -5.62916 3.25 100
    endloop
  endfacet
  facet normal 0.923596 -0.382566 -0.0247785
    outer loop
      vertex -7.24444 1.94114 60
      vertex -7.09418 2.30391 60
      vertex -5.62916 3.25 100
    endloop
  endfacet
  facet normal 0 0 -1
    outer loop
      vertex -5.54234 4.99178 60
      vertex -6.30357 3.99973 60
      vertex -6.06763 4.40839 60
    endloop
  endfacet
  facet normal 0 0 1
    outer loop
      vertex -6.30357 3.99973 60
      vertex -6.49519 3.75 60
      vertex -6.61565 3.45919 60
    endloop
  endfacet
  facet normal 0.79311 -0.608575 -0.0247785
    outer loop
      vertex -5.54234 4.99178 60
      vertex -5.3033 5.3033 60
      vertex -4.59619 4.59619 100
    endloop
  endfacet
  facet normal 0.79311 -0.608575 -0.0247785
    outer loop
      vertex -6.30357 3.99973 60
      vertex -5.54234 4.99178 60
      vertex -4.59619 4.59619 100
    endloop
  endfacet
  facet normal 0.79311 -0.608575 -0.0247785
    outer loop
      vertex -6.49519 3.75 60
      vertex -6.30357 3.99973 60
      vertex -4.59619 4.59619 100
    endloop
  endfacet
  facet normal 0 0 -1
    outer loop
      vertex -3.75 6.49519 60
      vertex -5.16918 5.40621 60
      vertex -5.01848 5.57359 60
    endloop
  endfacet
  facet normal 0 0 1
    outer loop
      vertex -5.16918 5.40621 60
      vertex -5.3033 5.3033 60
      vertex -5.54234 4.99178 60
    endloop
  endfacet
  facet normal 0.608575 -0.79311 -0.0247785
    outer loop
      vertex -5.16918 5.40621 60
      vertex -3.75 6.49519 60
      vertex -3.25 5.62916 100
    endloop
  endfacet
  facet normal 0.608575 -0.79311 -0.0247785
    outer loop
      vertex -5.3033 5.3033 60
      vertex -5.16918 5.40621 60
      vertex -3.25 5.62916 100
    endloop
  endfacet
  facet normal 0.382566 -0.923596 -0.0247785
    outer loop
      vertex -1.68232 6.27852 100
      vertex -3.25 5.62916 100
      vertex -3.75 6.49519 60
    endloop
  endfacet
  facet normal 0.382566 -0.923596 -0.0247785
    outer loop
      vertex -2.09733 7.17975 60
      vertex -1.94114 7.24444 60
      vertex -1.68232 6.27852 100
    endloop
  endfacet
  facet normal 0.382566 -0.923596 -0.0247785
    outer loop
      vertex -3.75 6.49519 60
      vertex -2.09733 7.17975 60
      vertex -1.68232 6.27852 100
    endloop
  endfacet
  facet normal 0 0 -1
    outer loop
      vertex -2.09733 7.17975 60
      vertex -3.75 6.49519 60
      vertex -2.31763 7.13292 60
    endloop
  endfacet
  facet normal 0 0 -1
    outer loop
      vertex -0.31208 7.45891 60
      vertex -1.55184 7.2957 60
      vertex -0.783963 7.45891 60
    endloop
  endfacet
  facet normal 0 0 1
    outer loop
      vertex -1.55184 7.2957 60
      vertex -1.94114 7.24444 60
      vertex -2.09733 7.17975 60
    endloop
  endfacet
  facet normal 0.130486 -0.99114 -0.0247785
    outer loop
      vertex -0.31208 7.45891 60
      vertex 0 7.5 60
      vertex 0 6.5 100
    endloop
  endfacet
  facet normal 0.130486 -0.99114 -0.0247785
    outer loop
      vertex -1.55184 7.2957 60
      vertex -0.31208 7.45891 60
      vertex 0 6.5 100
    endloop
  endfacet
  facet normal 0.130486 -0.99114 -0.0247785
    outer loop
      vertex -1.94114 7.24444 60
      vertex -1.55184 7.2957 60
      vertex 0 6.5 100
    endloop
  endfacet
  facet normal 0 0 1
    outer loop
      vertex 0.31208 7.45891 60
      vertex 0 7.5 60
      vertex -0.31208 7.45891 60
    endloop
  endfacet
  facet normal -0.130486 -0.99114 -0.0247785
    outer loop
      vertex 1.55184 7.2957 60
      vertex 1.94114 7.24444 60
      vertex 1.68232 6.27852 100
    endloop
  endfacet
  facet normal -0.130486 -0.99114 -0.0247785
    outer loop
      vertex 0.31208 7.45891 60
      vertex 1.55184 7.2957 60
      vertex 1.68232 6.27852 100
    endloop
  endfacet
  facet normal -0.130486 -0.99114 -0.0247785
    outer loop
      vertex 0 7.5 60
      vertex 0.31208 7.45891 60
      vertex 1.68232 6.27852 100
    endloop
  endfacet
  facet normal 0 0 -1
    outer loop
      vertex 1.55184 7.2957 60
      vertex 0.31208 7.45891 60
      vertex 0.783963 7.45891 60
    endloop
  endfacet
  facet normal 0 0 1
    outer loop
      vertex 2.09733 7.17975 60
      vertex 1.94114 7.24444 60
      vertex 1.55184 7.2957 60
    endloop
  endfacet
  facet normal -0.382566 -0.923596 -0.0247785
    outer loop
      vertex 2.09733 7.17975 60
      vertex 3.75 6.49519 60
      vertex 3.25 5.62916 100
    endloop
  endfacet
  facet normal -0.382566 -0.923596 -0.0247785
    outer loop
      vertex 1.94114 7.24444 60
      vertex 2.09733 7.17975 60
      vertex 3.25 5.62916 100
    endloop
  endfacet
  facet normal 0 0 -1
    outer loop
      vertex 3.75 6.49519 60
      vertex 2.09733 7.17975 60
      vertex 2.31763 7.13292 60
    endloop
  endfacet
  facet normal -0.608575 -0.79311 -0.0247785
    outer loop
      vertex 3.75 6.49519 60
      vertex 4.59619 4.59619 100
      vertex 3.25 5.62916 100
    endloop
  endfacet
  facet normal -0.608575 -0.79311 -0.0247785
    outer loop
      vertex 5.16918 5.40621 60
      vertex 5.3033 5.3033 60
      vertex 4.59619 4.59619 100
    endloop
  endfacet
  facet normal -0.608575 -0.79311 -0.0247785
    outer loop
      vertex 3.75 6.49519 60
      vertex 5.16918 5.40621 60
      vertex 4.59619 4.59619 100
    endloop
  endfacet
  facet normal 0 0 -1
    outer loop
      vertex 5.16918 5.40621 60
      vertex 3.75 6.49519 60
      vertex 5.01848 5.57359 60
    endloop
  endfacet
  facet normal 0 0 1
    outer loop
      vertex 5.54234 4.99178 60
      vertex 5.3033 5.3033 60
      vertex 5.16918 5.40621 60
    endloop
  endfacet
  facet normal -0.79311 -0.608575 -0.0247785
    outer loop
      vertex 6.49519 3.75 60
      vertex 5.62916 3.25 100
      vertex 6.30357 3.99973 60
    endloop
  endfacet
  facet normal -0.79311 -0.608575 -0.0247785
    outer loop
      vertex 6.30357 3.99973 60
      vertex 5.62916 3.25 100
      vertex 5.54234 4.99178 60
    endloop
  endfacet
  facet normal -0.79311 -0.608575 -0.0247785
    outer loop
      vertex 5.54234 4.99178 60
      vertex 5.62916 3.25 100
      vertex 5.3033 5.3033 60
    endloop
  endfacet
  facet normal 0 0 -1
    outer loop
      vertex 6.30357 3.99973 60
      vertex 5.54234 4.99178 60
      vertex 6.06763 4.40839 60
    endloop
  endfacet
  facet normal 0 0 1
    outer loop
      vertex 6.61565 3.45919 60
      vertex 6.49519 3.75 60
      vertex 6.30357 3.99973 60
    endloop
  endfacet
  facet normal -0.923596 -0.382566 -0.0247785
    outer loop
      vertex 7.09418 2.30391 60
      vertex 6.27852 1.68232 100
      vertex 6.61565 3.45919 60
    endloop
  endfacet
  facet normal -0.923596 -0.382566 -0.0247785
    outer loop
      vertex 6.61565 3.45919 60
      vertex 6.27852 1.68232 100
      vertex 6.49519 3.75 60
    endloop
  endfacet
  facet normal -0.923596 -0.382566 -0.0247785
    outer loop
      vertex 7.24444 1.94114 60
      vertex 6.27852 1.68232 100
      vertex 7.09418 2.30391 60
    endloop
  endfacet
  facet normal 0 0 -1
    outer loop
      vertex 7.09418 2.30391 60
      vertex 6.61565 3.45919 60
      vertex 6.85159 3.05052 60
    endloop
  endfacet
  facet normal 0 0 1
    outer loop
      vertex 7.26651 1.77354 60
      vertex 7.24444 1.94114 60
      vertex 7.09418 2.30391 60
    endloop
  endfacet
  facet normal -0.99114 -0.130486 -0.0247785
    outer loop
      vertex 7.5 0 60
      vertex 6.5 0 100
      vertex 7.26651 1.77354 60
    endloop
  endfacet
  facet normal -0.99114 -0.130486 -0.0247785
    outer loop
      vertex 7.26651 1.77354 60
      vertex 6.5 0 100
      vertex 7.24444 1.94114 60
    endloop
  endfacet
  facet normal 0 0 -1
    outer loop
      vertex 7.5 0 60
      vertex 7.26651 1.77354 60
      vertex 7.33611 1.55934 60
    endloop
  endfacet
  facet normal 0 0 -1
    outer loop
      vertex 7.33611 -1.55934 60
      vertex 7.26651 -1.77354 60
      vertex 7.5 0 60
    endloop
  endfacet
  facet normal -0.99114 0.130486 -0.0247785
    outer loop
      vertex 6.5 0 100
      vertex 7.5 0 60
      vertex 6.27852 -1.68232 100
    endloop
  endfacet
  facet normal -0.99114 0.130486 -0.0247785
    outer loop
      vertex 7.24444 -1.94114 60
      vertex 6.27852 -1.68232 100
      vertex 7.26651 -1.77354 60
    endloop
  endfacet
  facet normal -0.99114 0.130486 -0.0247785
    outer loop
      vertex 7.26651 -1.77354 60
      vertex 6.27852 -1.68232 100
      vertex 7.5 0 60
    endloop
  endfacet
  facet normal 0 0 -1
    outer loop
      vertex 6.85159 -3.05052 60
      vertex 6.61565 -3.45919 60
      vertex 7.09418 -2.30391 60
    endloop
  endfacet
  facet normal 0 0 1
    outer loop
      vertex 7.24444 -1.94114 60
      vertex 7.26651 -1.77354 60
      vertex 7.09418 -2.30391 60
    endloop
  endfacet
  facet normal -0.923596 0.382566 -0.0247785
    outer loop
      vertex 6.61565 -3.45919 60
      vertex 5.62916 -3.25 100
      vertex 7.09418 -2.30391 60
    endloop
  endfacet
  facet normal -0.923596 0.382566 -0.0247785
    outer loop
      vertex 7.09418 -2.30391 60
      vertex 5.62916 -3.25 100
      vertex 7.24444 -1.94114 60
    endloop
  endfacet
  facet normal -0.923596 0.382566 -0.0247785
    outer loop
      vertex 6.49519 -3.75 60
      vertex 5.62916 -3.25 100
      vertex 6.61565 -3.45919 60
    endloop
  endfacet
  facet normal 0 0 -1
    outer loop
      vertex 6.06763 -4.40839 60
      vertex 5.54234 -4.99178 60
      vertex 6.30357 -3.99973 60
    endloop
  endfacet
  facet normal 0 0 1
    outer loop
      vertex 6.49519 -3.75 60
      vertex 6.61565 -3.45919 60
      vertex 6.30357 -3.99973 60
    endloop
  endfacet
  facet normal -0.79311 0.608575 -0.0247785
    outer loop
      vertex 5.54234 -4.99178 60
      vertex 4.59619 -4.59619 100
      vertex 6.30357 -3.99973 60
    endloop
  endfacet
  facet normal -0.79311 0.608575 -0.0247785
    outer loop
      vertex 6.30357 -3.99973 60
      vertex 4.59619 -4.59619 100
      vertex 6.49519 -3.75 60
    endloop
  endfacet
  facet normal -0.79311 0.608575 -0.0247785
    outer loop
      vertex 5.3033 -5.3033 60
      vertex 4.59619 -4.59619 100
      vertex 5.54234 -4.99178 60
    endloop
  endfacet
  facet normal 0 0 -1
    outer loop
      vertex 5.01848 -5.57359 60
      vertex 3.75 -6.49519 60
      vertex 5.16918 -5.40621 60
    endloop
  endfacet
  facet normal 0 0 1
    outer loop
      vertex 5.3033 -5.3033 60
      vertex 5.54234 -4.99178 60
      vertex 5.16918 -5.40621 60
    endloop
  endfacet
  facet normal -0.608575 0.79311 -0.0247785
    outer loop
      vertex 3.75 -6.49519 60
      vertex 3.25 -5.62916 100
      vertex 5.16918 -5.40621 60
    endloop
  endfacet
  facet normal -0.608575 0.79311 -0.0247785
    outer loop
      vertex 5.16918 -5.40621 60
      vertex 3.25 -5.62916 100
      vertex 5.3033 -5.3033 60
    endloop
  endfacet
  facet normal 0 0 -1
    outer loop
      vertex 2.31763 -7.13292 60
      vertex 2.09733 -7.17975 60
      vertex 3.75 -6.49519 60
    endloop
  endfacet
  facet normal -0.382566 0.923596 -0.0247785
    outer loop
      vertex 3.25 -5.62916 100
      vertex 3.75 -6.49519 60
      vertex 1.68232 -6.27852 100
    endloop
  endfacet
  facet normal -0.382566 0.923596 -0.0247785
    outer loop
      vertex 1.94114 -7.24444 60
      vertex 1.68232 -6.27852 100
      vertex 2.09733 -7.17975 60
    endloop
  endfacet
  facet normal -0.382566 0.923596 -0.0247785
    outer loop
      vertex 2.09733 -7.17975 60
      vertex 1.68232 -6.27852 100
      vertex 3.75 -6.49519 60
    endloop
  endfacet
  facet normal 0 0 -1
    outer loop
      vertex 0.783963 -7.45891 60
      vertex 0.31208 -7.45891 60
      vertex 1.55184 -7.2957 60
    endloop
  endfacet
  facet normal 0 0 1
    outer loop
      vertex 1.94114 -7.24444 60
      vertex 2.09733 -7.17975 60
      vertex 1.55184 -7.2957 60
    endloop
  endfacet
  facet normal -0.130486 0.99114 -0.0247785
    outer loop
      vertex 1.94114 -7.24444 60
      vertex 1.55184 -7.2957 60
      vertex 0 -6.5 100
    endloop
  endfacet
  facet normal -0.130486 0.99114 -0.0247785
    outer loop
      vertex 0 -6.5 100
      vertex 1.55184 -7.2957 60
      vertex 0.31208 -7.45891 60
    endloop
  endfacet
  facet normal -0.130486 0.99114 -0.0247785
    outer loop
      vertex 0 -6.5 100
      vertex 0.31208 -7.45891 60
      vertex 0 -7.5 60
    endloop
  endfacet
  facet normal 0 0 -1
    outer loop
      vertex -0.783963 -7.45891 60
      vertex -1.55184 -7.2957 60
      vertex -0.31208 -7.45891 60
    endloop
  endfacet
  facet normal 0 0 1
    outer loop
      vertex 0 -7.5 60
      vertex 0.31208 -7.45891 60
      vertex -0.31208 -7.45891 60
    endloop
  endfacet
  facet normal 0.130486 0.99114 -0.0247785
    outer loop
      vertex 0 -7.5 60
      vertex -0.31208 -7.45891 60
      vertex -1.68232 -6.27852 100
    endloop
  endfacet
  facet normal 0.130486 0.99114 -0.0247785
    outer loop
      vertex -1.68232 -6.27852 100
      vertex -0.31208 -7.45891 60
      vertex -1.55184 -7.2957 60
    endloop
  endfacet
  facet normal 0.130486 0.99114 -0.0247785
    outer loop
      vertex -1.68232 -6.27852 100
      vertex -1.55184 -7.2957 60
      vertex -1.94114 -7.24444 60
    endloop
  endfacet
  facet normal 0 0 -1
    outer loop
      vertex -2.31763 -7.13292 60
      vertex -3.75 -6.49519 60
      vertex -2.09733 -7.17975 60
    endloop
  endfacet
  facet normal 0 0 1
    outer loop
      vertex -1.94114 -7.24444 60
      vertex -1.55184 -7.2957 60
      vertex -2.09733 -7.17975 60
    endloop
  endfacet
  facet normal 0.382566 0.923596 -0.0247785
    outer loop
      vertex -1.94114 -7.24444 60
      vertex -2.09733 -7.17975 60
      vertex -3.25 -5.62916 100
    endloop
  endfacet
  facet normal 0.382566 0.923596 -0.0247785
    outer loop
      vertex -3.25 -5.62916 100
      vertex -2.09733 -7.17975 60
      vertex -3.75 -6.49519 60
    endloop
  endfacet
  facet normal 0 0 -1
    outer loop
      vertex -5.01848 -5.57359 60
      vertex -5.16918 -5.40621 60
      vertex -3.75 -6.49519 60
    endloop
  endfacet
  facet normal 0.608575 0.79311 -0.0247785
    outer loop
      vertex -3.25 -5.62916 100
      vertex -3.75 -6.49519 60
      vertex -4.59619 -4.59619 100
    endloop
  endfacet
  facet normal 0.608575 0.79311 -0.0247785
    outer loop
      vertex -3.75 -6.49519 60
      vertex -5.16918 -5.40621 60
      vertex -4.59619 -4.59619 100
    endloop
  endfacet
  facet normal 0.608575 0.79311 -0.0247785
    outer loop
      vertex -4.59619 -4.59619 100
      vertex -5.16918 -5.40621 60
      vertex -5.3033 -5.3033 60
    endloop
  endfacet
  facet normal 0 0 -1
    outer loop
      vertex -6.06763 -4.40839 60
      vertex -6.30357 -3.99973 60
      vertex -5.54234 -4.99178 60
    endloop
  endfacet
  facet normal 0 0 1
    outer loop
      vertex -5.3033 -5.3033 60
      vertex -5.16918 -5.40621 60
      vertex -5.54234 -4.99178 60
    endloop
  endfacet
  facet normal 0.79311 0.608575 -0.0247785
    outer loop
      vertex -5.62916 -3.25 100
      vertex -5.3033 -5.3033 60
      vertex -5.54234 -4.99178 60
    endloop
  endfacet
  facet normal 0.79311 0.608575 -0.0247785
    outer loop
      vertex -6.49519 -3.75 60
      vertex -5.62916 -3.25 100
      vertex -6.30357 -3.99973 60
    endloop
  endfacet
  facet normal 0.79311 0.608575 -0.0247785
    outer loop
      vertex -6.30357 -3.99973 60
      vertex -5.62916 -3.25 100
      vertex -5.54234 -4.99178 60
    endloop
  endfacet
  facet normal 0 0 -1
    outer loop
      vertex -6.85159 -3.05052 60
      vertex -7.09418 -2.30391 60
      vertex -6.61565 -3.45919 60
    endloop
  endfacet
  facet normal 0 0 1
    outer loop
      vertex -6.49519 -3.75 60
      vertex -6.30357 -3.99973 60
      vertex -6.61565 -3.45919 60
    endloop
  endfacet
  facet normal 0.923596 0.382566 -0.0247785
    outer loop
      vertex -6.27852 -1.68232 100
      vertex -6.49519 -3.75 60
      vertex -6.61565 -3.45919 60
    endloop
  endfacet
  facet normal 0.923596 0.382566 -0.0247785
    outer loop
      vertex -7.24444 -1.94114 60
      vertex -6.27852 -1.68232 100
      vertex -7.09418 -2.30391 60
    endloop
  endfacet
  facet normal 0.923596 0.382566 -0.0247785
    outer loop
      vertex -7.09418 -2.30391 60
      vertex -6.27852 -1.68232 100
      vertex -6.61565 -3.45919 60
    endloop
  endfacet
  facet normal 0 0 1
    outer loop
      vertex -7.24444 -1.94114 60
      vertex -7.09418 -2.30391 60
      vertex -7.26651 -1.77354 60
    endloop
  endfacet
  facet normal 0 0 1
    outer loop
      vertex -8.31425 1.76725 100
      vertex -8.5 0 100
      vertex -8.31425 -1.76725 100
    endloop
  endfacet
  facet normal 0 0 1
    outer loop
      vertex -6.87664 -4.99618 100
      vertex -8.31425 1.76725 100
      vertex -7.76514 -3.45726 100
    endloop
  endfacet
  facet normal 0 0 1
    outer loop
      vertex -7.76514 -3.45726 100
      vertex -8.31425 1.76725 100
      vertex -8.31425 -1.76725 100
    endloop
  endfacet
  facet normal 0 0 1
    outer loop
      vertex -5.68761 -6.31673 100
      vertex -8.31425 1.76725 100
      vertex -6.87664 -4.99618 100
    endloop
  endfacet
  facet normal 0 0 1
    outer loop
      vertex -4.25 -7.36122 100
      vertex -8.31425 1.76725 100
      vertex -5.68761 -6.31673 100
    endloop
  endfacet
  facet normal 0 0 1
    outer loop
      vertex -5.62916 -3.25 100
      vertex -8.31425 1.76725 100
      vertex -4.25 -7.36122 100
    endloop
  endfacet
  facet normal 0 0 1
    outer loop
      vertex 6.27852 1.68232 100
      vertex 6.5 0 100
      vertex 8.5 0 100
    endloop
  endfacet
  facet normal 0 0 1
    outer loop
      vertex 5.62916 3.25 100
      vertex 8.31425 1.76725 100
      vertex 7.76514 3.45726 100
    endloop
  endfacet
  facet normal 0 0 1
    outer loop
      vertex 4.59619 4.59619 100
      vertex 5.62916 3.25 100
      vertex 6.87664 4.99618 100
    endloop
  endfacet
  facet normal 0 0 1
    outer loop
      vertex 3.25 5.62916 100
      vertex 4.59619 4.59619 100
      vertex 5.68761 6.31673 100
    endloop
  endfacet
  facet normal 0 0 1
    outer loop
      vertex 1.68232 6.27852 100
      vertex 3.25 5.62916 100
      vertex 4.25 7.36122 100
    endloop
  endfacet
  facet normal 0 0 1
    outer loop
      vertex -5.62916 3.25 100
      vertex -4.59619 4.59619 100
      vertex -8.31425 1.76725 100
    endloop
  endfacet
  facet normal 0 0 1
    outer loop
      vertex 5.62916 3.25 100
      vertex 6.27852 1.68232 100
      vertex 8.31425 1.76725 100
    endloop
  endfacet
  facet normal 0 0 1
    outer loop
      vertex -1.68232 6.27852 100
      vertex 0 6.5 100
      vertex 2.62664 8.08398 100
    endloop
  endfacet
  facet normal 0 0 1
    outer loop
      vertex -2.62664 8.08398 100
      vertex -8.31425 1.76725 100
      vertex -0.888492 8.45344 100
    endloop
  endfacet
  facet normal 0 0 1
    outer loop
      vertex -4.25 7.36122 100
      vertex -8.31425 1.76725 100
      vertex -2.62664 8.08398 100
    endloop
  endfacet
  facet normal 0 0 1
    outer loop
      vertex -5.68761 6.31673 100
      vertex -8.31425 1.76725 100
      vertex -4.25 7.36122 100
    endloop
  endfacet
  facet normal 0 0 1
    outer loop
      vertex -6.87664 4.99618 100
      vertex -8.31425 1.76725 100
      vertex -5.68761 6.31673 100
    endloop
  endfacet
  facet normal 0 0 1
    outer loop
      vertex -7.76514 3.45726 100
      vertex -8.31425 1.76725 100
      vertex -6.87664 4.99618 100
    endloop
  endfacet
  facet normal 0 0 1
    outer loop
      vertex 5.62916 -3.25 100
      vertex 4.59619 -4.59619 100
      vertex 6.87664 -4.99618 100
    endloop
  endfacet
  facet normal 0 0 1
    outer loop
      vertex 6.5 0 100
      vertex 6.27852 -1.68232 100
      vertex 8.31425 -1.76725 100
    endloop
  endfacet
  facet normal 0 0 1
    outer loop
      vertex -0.888492 8.45344 100
      vertex -8.31425 1.76725 100
      vertex -4.59619 4.59619 100
    endloop
  endfacet
  facet normal 0 0 1
    outer loop
      vertex -0.888492 8.45344 100
      vertex -3.25 5.62916 100
      vertex 0.888492 8.45344 100
    endloop
  endfacet
  facet normal 0 0 1
    outer loop
      vertex -0.888492 8.45344 100
      vertex -4.59619 4.59619 100
      vertex -3.25 5.62916 100
    endloop
  endfacet
  facet normal 0 0 1
    outer loop
      vertex 0.888492 8.45344 100
      vertex -1.68232 6.27852 100
      vertex 2.62664 8.08398 100
    endloop
  endfacet
  facet normal 0 0 1
    outer loop
      vertex -3.25 5.62916 100
      vertex -1.68232 6.27852 100
      vertex 0.888492 8.45344 100
    endloop
  endfacet
  facet normal 0 0 1
    outer loop
      vertex 2.62664 8.08398 100
      vertex 0 6.5 100
      vertex 4.25 7.36122 100
    endloop
  endfacet
  facet normal 0 0 1
    outer loop
      vertex 4.25 7.36122 100
      vertex 3.25 5.62916 100
      vertex 5.68761 6.31673 100
    endloop
  endfacet
  facet normal 0 0 1
    outer loop
      vertex 0 6.5 100
      vertex 1.68232 6.27852 100
      vertex 4.25 7.36122 100
    endloop
  endfacet
  facet normal 0 0 1
    outer loop
      vertex 5.68761 6.31673 100
      vertex 4.59619 4.59619 100
      vertex 6.87664 4.99618 100
    endloop
  endfacet
  facet normal 0 0 1
    outer loop
      vertex 6.87664 4.99618 100
      vertex 5.62916 3.25 100
      vertex 7.76514 3.45726 100
    endloop
  endfacet
  facet normal 0 0 1
    outer loop
      vertex 8.31425 1.76725 100
      vertex 6.27852 1.68232 100
      vertex 8.5 0 100
    endloop
  endfacet
  facet normal 0 0 1
    outer loop
      vertex 8.5 0 100
      vertex 6.5 0 100
      vertex 8.31425 -1.76725 100
    endloop
  endfacet
  facet normal 0 0 1
    outer loop
      vertex 8.31425 -1.76725 100
      vertex 6.27852 -1.68232 100
      vertex 7.76514 -3.45726 100
    endloop
  endfacet
  facet normal 0 0 1
    outer loop
      vertex 7.76514 -3.45726 100
      vertex 5.62916 -3.25 100
      vertex 6.87664 -4.99618 100
    endloop
  endfacet
  facet normal 0 0 1
    outer loop
      vertex 6.87664 -4.99618 100
      vertex 4.59619 -4.59619 100
      vertex 5.68761 -6.31673 100
    endloop
  endfacet
  facet normal 0 0 1
    outer loop
      vertex 1.68232 -6.27852 100
      vertex 0 -6.5 100
      vertex 2.62664 -8.08398 100
    endloop
  endfacet
  facet normal 0 0 1
    outer loop
      vertex 5.68761 -6.31673 100
      vertex 3.25 -5.62916 100
      vertex 4.25 -7.36122 100
    endloop
  endfacet
  facet normal 0 0 1
    outer loop
      vertex -6.27852 1.68232 100
      vertex -5.62916 3.25 100
      vertex -8.31425 1.76725 100
    endloop
  endfacet
  facet normal 0 0 1
    outer loop
      vertex 4.25 -7.36122 100
      vertex 1.68232 -6.27852 100
      vertex 2.62664 -8.08398 100
    endloop
  endfacet
  facet normal 0 0 1
    outer loop
      vertex 2.62664 -8.08398 100
      vertex 0 -6.5 100
      vertex 0.888492 -8.45344 100
    endloop
  endfacet
  facet normal 0 0 1
    outer loop
      vertex 0.888492 -8.45344 100
      vertex -1.68232 -6.27852 100
      vertex -0.888492 -8.45344 100
    endloop
  endfacet
  facet normal 0 0 1
    outer loop
      vertex 6.27852 -1.68232 100
      vertex 5.62916 -3.25 100
      vertex 7.76514 -3.45726 100
    endloop
  endfacet
  facet normal 0 0 1
    outer loop
      vertex -0.888492 -8.45344 100
      vertex -3.25 -5.62916 100
      vertex -2.62664 -8.08398 100
    endloop
  endfacet
  facet normal 0 0 1
    outer loop
      vertex -3.25 -5.62916 100
      vertex -4.59619 -4.59619 100
      vertex -2.62664 -8.08398 100
    endloop
  endfacet
  facet normal 0 0 1
    outer loop
      vertex -2.62664 -8.08398 100
      vertex -5.62916 -3.25 100
      vertex -4.25 -7.36122 100
    endloop
  endfacet
  facet normal 0 0 1
    outer loop
      vertex -5.62916 -3.25 100
      vertex -6.27852 -1.68232 100
      vertex -8.31425 1.76725 100
    endloop
  endfacet
  facet normal 0 0 1
    outer loop
      vertex -4.59619 -4.59619 100
      vertex -5.62916 -3.25 100
      vertex -2.62664 -8.08398 100
    endloop
  endfacet
  facet normal 0 0 1
    outer loop
      vertex -6.27852 -1.68232 100
      vertex -6.5 0 100
      vertex -8.31425 1.76725 100
    endloop
  endfacet
  facet normal 0 0 1
    outer loop
      vertex 4.59619 -4.59619 100
      vertex 3.25 -5.62916 100
      vertex 5.68761 -6.31673 100
    endloop
  endfacet
  facet normal 0 0 1
    outer loop
      vertex 3.25 -5.62916 100
      vertex 1.68232 -6.27852 100
      vertex 4.25 -7.36122 100
    endloop
  endfacet
  facet normal 0 0 1
    outer loop
      vertex -1.68232 -6.27852 100
      vertex -3.25 -5.62916 100
      vertex -0.888492 -8.45344 100
    endloop
  endfacet
  facet normal 0 0 1
    outer loop
      vertex 0 -6.5 100
      vertex -1.68232 -6.27852 100
      vertex 0.888492 -8.45344 100
    endloop
  endfacet
  facet normal 0 0 1
    outer loop
      vertex -6.5 0 100
      vertex -6.27852 1.68232 100
      vertex -8.31425 1.76725 100
    endloop
  endfacet
  facet normal 0.923596 -0.382566 -0.0247785
    outer loop
      vertex -5.62916 3.25 100
      vertex -6.27852 1.68232 100
      vertex -7.24444 1.94114 60
    endloop
  endfacet
  facet normal 0.99114 0.130486 -0.0247785
    outer loop
      vertex -6.5 0 100
      vertex -6.27852 -1.68232 100
      vertex -7.24444 -1.94114 60
    endloop
  endfacet
  facet normal 0.79311 -0.608575 -0.0247785
    outer loop
      vertex -4.59619 4.59619 100
      vertex -5.62916 3.25 100
      vertex -6.49519 3.75 60
    endloop
  endfacet
  facet normal 0.608575 -0.79311 -0.0247785
    outer loop
      vertex -3.25 5.62916 100
      vertex -4.59619 4.59619 100
      vertex -5.3033 5.3033 60
    endloop
  endfacet
  facet normal 0.130486 -0.99114 -0.0247785
    outer loop
      vertex 0 6.5 100
      vertex -1.68232 6.27852 100
      vertex -1.94114 7.24444 60
    endloop
  endfacet
  facet normal -0.130486 -0.99114 -0.0247785
    outer loop
      vertex 0 7.5 60
      vertex 1.68232 6.27852 100
      vertex 0 6.5 100
    endloop
  endfacet
  facet normal -0.382566 -0.923596 -0.0247785
    outer loop
      vertex 1.94114 7.24444 60
      vertex 3.25 5.62916 100
      vertex 1.68232 6.27852 100
    endloop
  endfacet
  facet normal -0.79311 -0.608575 -0.0247785
    outer loop
      vertex 5.3033 5.3033 60
      vertex 5.62916 3.25 100
      vertex 4.59619 4.59619 100
    endloop
  endfacet
  facet normal -0.923596 -0.382566 -0.0247785
    outer loop
      vertex 6.49519 3.75 60
      vertex 6.27852 1.68232 100
      vertex 5.62916 3.25 100
    endloop
  endfacet
  facet normal -0.99114 -0.130486 -0.0247785
    outer loop
      vertex 7.24444 1.94114 60
      vertex 6.5 0 100
      vertex 6.27852 1.68232 100
    endloop
  endfacet
  facet normal -0.923596 0.382566 -0.0247785
    outer loop
      vertex 6.27852 -1.68232 100
      vertex 7.24444 -1.94114 60
      vertex 5.62916 -3.25 100
    endloop
  endfacet
  facet normal -0.79311 0.608575 -0.0247785
    outer loop
      vertex 5.62916 -3.25 100
      vertex 6.49519 -3.75 60
      vertex 4.59619 -4.59619 100
    endloop
  endfacet
  facet normal -0.608575 0.79311 -0.0247785
    outer loop
      vertex 4.59619 -4.59619 100
      vertex 5.3033 -5.3033 60
      vertex 3.25 -5.62916 100
    endloop
  endfacet
  facet normal -0.130486 0.99114 -0.0247785
    outer loop
      vertex 1.68232 -6.27852 100
      vertex 1.94114 -7.24444 60
      vertex 0 -6.5 100
    endloop
  endfacet
  facet normal 0.130486 0.99114 -0.0247785
    outer loop
      vertex 0 -6.5 100
      vertex 0 -7.5 60
      vertex -1.68232 -6.27852 100
    endloop
  endfacet
  facet normal 0.382566 0.923596 -0.0247785
    outer loop
      vertex -1.68232 -6.27852 100
      vertex -1.94114 -7.24444 60
      vertex -3.25 -5.62916 100
    endloop
  endfacet
  facet normal 0.79311 0.608575 -0.0247785
    outer loop
      vertex -4.59619 -4.59619 100
      vertex -5.3033 -5.3033 60
      vertex -5.62916 -3.25 100
    endloop
  endfacet
  facet normal 0.923596 0.382566 -0.0247785
    outer loop
      vertex -6.27852 -1.68232 100
      vertex -5.62916 -3.25 100
      vertex -6.49519 -3.75 60
    endloop
  endfacet
endsolid OpenSCAD_Model
