solid
 facet normal 0.689655 0.724138 0
   outer loop
     vertex -11.5777 -13.1007 3
     vertex -4.65736 -19.6915 3
     vertex -4.65736 -19.6915 1
   endloop
 endfacet
 facet normal 0.689655 0.724138 -0
   outer loop
     vertex -11.5777 -13.1007 1
     vertex -11.5777 -13.1007 3
     vertex -4.65736 -19.6915 1
   endloop
 endfacet
 facet normal 1 0 -0
   outer loop
     vertex -11.5777 9.96719 1
     vertex -11.5777 9.96719 3
     vertex -11.5777 -13.1007 3
   endloop
 endfacet
 facet normal 1 0 0
   outer loop
     vertex -11.5777 9.96719 1
     vertex -11.5777 -13.1007 3
     vertex -11.5777 -13.1007 1
   endloop
 endfacet
 facet normal 0 0 1
   outer loop
     vertex -4.65736 1.72867 3
     vertex -4.65736 -19.3619 3
     vertex 0.944837 -4.86215 3
   endloop
 endfacet
 facet normal 0 -0 1
   outer loop
     vertex 5.55841 -29.2482 3
     vertex 5.55841 4.36499 3
     vertex 0.944837 -4.86215 3
   endloop
 endfacet
 facet normal 0 0 1
   outer loop
     vertex 29.9444 0.740044 3
     vertex 42.467 0.740044 3
     vertex 35.5466 4.03545 3
   endloop
 endfacet
 facet normal 0 0 1
   outer loop
     vertex 35.2171 -6.18031 3
     vertex 29.9444 -6.18031 3
     vertex 35.2171 -12.4416 3
   endloop
 endfacet
 facet normal 0 -0 1
   outer loop
     vertex 16.1542 -1.84578 3
     vertex 18.081 25.4556 3
     vertex 13.1378 25.4556 3
   endloop
 endfacet
 facet normal 0 0 1
   outer loop
     vertex 16.1542 -1.84578 3
     vertex 13.1378 25.4556 3
     vertex 13.1378 -29.2482 3
   endloop
 endfacet
 facet normal -0 0 1
   outer loop
     vertex 16.1542 -1.84578 3
     vertex 18.081 -29.2482 3
     vertex 18.081 25.4556 3
   endloop
 endfacet
 facet normal 0 0 1
   outer loop
     vertex 16.1542 -1.84578 3
     vertex 13.1378 -29.2482 3
     vertex 18.081 -29.2482 3
   endloop
 endfacet
 facet normal 0 0 1
   outer loop
     vertex 42.467 -13.4302 3
     vertex 26.9786 -29.2482 3
     vertex 30.4877 -35.0576 3
   endloop
 endfacet
 facet normal 0 0 1
   outer loop
     vertex 25.0013 18.2057 3
     vertex 25.0013 -22.3278 3
     vertex 29.9444 0.740044 3
   endloop
 endfacet
 facet normal 0 0 1
   outer loop
     vertex -4.65736 -19.6915 3
     vertex -17.0576 -16.1793 3
     vertex 2.80524 -35.4654 3
   endloop
 endfacet
 facet normal 0 0 1
   outer loop
     vertex 29.9444 0.740044 3
     vertex 25.0013 -22.3278 3
     vertex 29.9444 -6.18031 3
   endloop
 endfacet
 facet normal 0 0 1
   outer loop
     vertex -4.65736 -19.6915 3
     vertex -11.5777 -13.1007 3
     vertex -17.0576 -16.1793 3
   endloop
 endfacet
 facet normal 0 0 1
   outer loop
     vertex 5.55841 -29.2482 3
     vertex -4.65736 -19.3619 3
     vertex -4.65736 -19.6915 3
   endloop
 endfacet
 facet normal 0 0 1
   outer loop
     vertex 6.54703 25.4556 3
     vertex -4.65736 16.8875 3
     vertex 0.285756 9.96719 3
   endloop
 endfacet
 facet normal 0 0 1
   outer loop
     vertex 5.55841 -29.2482 3
     vertex -4.65736 -19.6915 3
     vertex 2.80524 -35.4654 3
   endloop
 endfacet
 facet normal 0 0 1
   outer loop
     vertex 1.82069 31.3661 3
     vertex -4.65736 16.8875 3
     vertex 6.54703 25.4556 3
   endloop
 endfacet
 facet normal 0 0 1
   outer loop
     vertex 1.82069 31.3661 3
     vertex -17.4654 11.5032 3
     vertex -4.65736 16.8875 3
   endloop
 endfacet
 facet normal 0 0 1
   outer loop
     vertex 13.1378 -29.2482 3
     vertex 5.55841 -29.2482 3
     vertex 2.80524 -35.4654 3
   endloop
 endfacet
 facet normal 0 0 1
   outer loop
     vertex 18.081 -29.2482 3
     vertex 13.1378 -29.2482 3
     vertex 2.80524 -35.4654 3
   endloop
 endfacet
 facet normal 0 0 1
   outer loop
     vertex 49.7739 -15.1948 3
     vertex 42.467 -13.4302 3
     vertex 30.4877 -35.0576 3
   endloop
 endfacet
 facet normal 0 0 1
   outer loop
     vertex -17.4654 11.5032 3
     vertex -17.0576 -16.1793 3
     vertex -11.5777 -13.1007 3
   endloop
 endfacet
 facet normal 0 0 1
   outer loop
     vertex 13.1378 25.4556 3
     vertex 1.82069 31.3661 3
     vertex 6.54703 25.4556 3
   endloop
 endfacet
 facet normal 0 0 1
   outer loop
     vertex 30.4877 -35.0576 3
     vertex 18.081 -29.2482 3
     vertex 2.80524 -35.4654 3
   endloop
 endfacet
 facet normal 0 0 1
   outer loop
     vertex 0.944837 -4.86215 3
     vertex -4.65736 -19.3619 3
     vertex 5.55841 -29.2482 3
   endloop
 endfacet
 facet normal 0 0 1
   outer loop
     vertex 42.467 0.740044 3
     vertex 42.467 -13.4302 3
     vertex 49.7739 -15.1948 3
   endloop
 endfacet
 facet normal 0 0 1
   outer loop
     vertex 26.9786 -29.2482 3
     vertex 18.081 -29.2482 3
     vertex 30.4877 -35.0576 3
   endloop
 endfacet
 facet normal 0 0 1
   outer loop
     vertex 35.5466 7.98994 3
     vertex 29.9444 0.740044 3
     vertex 35.5466 4.03545 3
   endloop
 endfacet
 facet normal 0 0 1
   outer loop
     vertex -11.5777 9.96719 3
     vertex -17.4654 11.5032 3
     vertex -11.5777 -13.1007 3
   endloop
 endfacet
 facet normal 0 0 1
   outer loop
     vertex 35.5466 7.98994 3
     vertex 25.0013 18.2057 3
     vertex 29.9444 0.740044 3
   endloop
 endfacet
 facet normal 0 0 1
   outer loop
     vertex 42.467 4.03545 3
     vertex 35.5466 4.03545 3
     vertex 42.467 0.740044 3
   endloop
 endfacet
 facet normal 0 0 1
   outer loop
     vertex -4.65736 16.8875 3
     vertex -17.4654 11.5032 3
     vertex -11.5777 9.96719 3
   endloop
 endfacet
 facet normal 0 0 1
   outer loop
     vertex 29.5032 31.7739 3
     vertex 13.1378 25.4556 3
     vertex 18.081 25.4556 3
   endloop
 endfacet
 facet normal 0 0 1
   outer loop
     vertex 29.5032 31.7739 3
     vertex 18.081 25.4556 3
     vertex 27.3081 25.4556 3
   endloop
 endfacet
 facet normal 0 0 1
   outer loop
     vertex 29.5032 31.7739 3
     vertex 27.3081 25.4556 3
     vertex 42.467 10.2967 3
   endloop
 endfacet
 facet normal 0 0 1
   outer loop
     vertex 29.5032 31.7739 3
     vertex 1.82069 31.3661 3
     vertex 13.1378 25.4556 3
   endloop
 endfacet
 facet normal 0 0 1
   outer loop
     vertex 49.3661 12.4877 3
     vertex 42.467 0.740044 3
     vertex 49.7739 -15.1948 3
   endloop
 endfacet
 facet normal 0 0 1
   outer loop
     vertex 49.3661 12.4877 3
     vertex 42.467 10.2967 3
     vertex 42.467 4.03545 3
   endloop
 endfacet
 facet normal 0 0 1
   outer loop
     vertex 49.3661 12.4877 3
     vertex 29.5032 31.7739 3
     vertex 42.467 10.2967 3
   endloop
 endfacet
 facet normal 0 0 1
   outer loop
     vertex 29.9444 -6.18031 3
     vertex 25.0013 -22.3278 3
     vertex 35.2171 -12.4416 3
   endloop
 endfacet
 facet normal 0 0 1
   outer loop
     vertex 49.3661 12.4877 3
     vertex 42.467 4.03545 3
     vertex 42.467 0.740044 3
   endloop
 endfacet
 facet normal -1 0 0
   outer loop
     vertex -4.65736 -19.3619 1
     vertex -4.65736 -19.6915 3
     vertex -4.65736 -19.3619 3
   endloop
 endfacet
 facet normal -1 0 0
   outer loop
     vertex -4.65736 -19.6915 1
     vertex -4.65736 -19.6915 3
     vertex -4.65736 -19.3619 1
   endloop
 endfacet
 facet normal 0 0 -1
   outer loop
     vertex -4.65736 1.72867 1
     vertex 0.944837 -4.86215 1
     vertex -4.65736 -19.3619 1
   endloop
 endfacet
 facet normal 0 0 -1
   outer loop
     vertex 5.55841 -29.2482 1
     vertex 0.944837 -4.86215 1
     vertex 5.55841 4.36499 1
   endloop
 endfacet
 facet normal 0 0 -1
   outer loop
     vertex 29.9444 0.740044 1
     vertex 35.5466 4.03545 1
     vertex 42.467 0.740044 1
   endloop
 endfacet
 facet normal -0 -0 -1
   outer loop
     vertex 35.2171 -6.18031 1
     vertex 35.2171 -12.4416 1
     vertex 29.9444 -6.18031 1
   endloop
 endfacet
 facet normal 0 0 -1
   outer loop
     vertex 16.1542 -1.84578 1
     vertex 13.1378 25.4556 1
     vertex 18.081 25.4556 1
   endloop
 endfacet
 facet normal -0 0 -1
   outer loop
     vertex 16.1542 -1.84578 1
     vertex 13.1378 -29.2482 1
     vertex 13.1378 25.4556 1
   endloop
 endfacet
 facet normal 0 0 -1
   outer loop
     vertex 16.1542 -1.84578 1
     vertex 18.081 25.4556 1
     vertex 18.081 -29.2482 1
   endloop
 endfacet
 facet normal 0 -0 -1
   outer loop
     vertex 16.1542 -1.84578 1
     vertex 18.081 -29.2482 1
     vertex 13.1378 -29.2482 1
   endloop
 endfacet
 facet normal 0 0 -1
   outer loop
     vertex 42.467 -13.4302 1
     vertex 30.4877 -35.0576 1
     vertex 26.9786 -29.2482 1
   endloop
 endfacet
 facet normal 0 0 -1
   outer loop
     vertex 25.0013 18.2057 1
     vertex 29.9444 0.740044 1
     vertex 25.0013 -22.3278 1
   endloop
 endfacet
 facet normal -0 -0 -1
   outer loop
     vertex -4.65736 -19.6915 1
     vertex 2.80524 -35.4654 1
     vertex -17.0576 -16.1793 1
   endloop
 endfacet
 facet normal 0 -0 -1
   outer loop
     vertex 29.9444 0.740044 1
     vertex 29.9444 -6.18031 1
     vertex 25.0013 -22.3278 1
   endloop
 endfacet
 facet normal 0 0 -1
   outer loop
     vertex -4.65736 -19.6915 1
     vertex -17.0576 -16.1793 1
     vertex -11.5777 -13.1007 1
   endloop
 endfacet
 facet normal 0 0 -1
   outer loop
     vertex 5.55841 -29.2482 1
     vertex -4.65736 -19.6915 1
     vertex -4.65736 -19.3619 1
   endloop
 endfacet
 facet normal 0 0 -1
   outer loop
     vertex 6.54703 25.4556 1
     vertex 0.285756 9.96719 1
     vertex -4.65736 16.8875 1
   endloop
 endfacet
 facet normal -0 0 -1
   outer loop
     vertex 5.55841 -29.2482 1
     vertex 2.80524 -35.4654 1
     vertex -4.65736 -19.6915 1
   endloop
 endfacet
 facet normal 0 -0 -1
   outer loop
     vertex 1.82069 31.3661 1
     vertex 6.54703 25.4556 1
     vertex -4.65736 16.8875 1
   endloop
 endfacet
 facet normal 0 0 -1
   outer loop
     vertex 1.82069 31.3661 1
     vertex -4.65736 16.8875 1
     vertex -17.4654 11.5032 1
   endloop
 endfacet
 facet normal -0 0 -1
   outer loop
     vertex 13.1378 -29.2482 1
     vertex 2.80524 -35.4654 1
     vertex 5.55841 -29.2482 1
   endloop
 endfacet
 facet normal -0 0 -1
   outer loop
     vertex 18.081 -29.2482 1
     vertex 2.80524 -35.4654 1
     vertex 13.1378 -29.2482 1
   endloop
 endfacet
 facet normal -0 0 -1
   outer loop
     vertex 49.7739 -15.1948 1
     vertex 30.4877 -35.0576 1
     vertex 42.467 -13.4302 1
   endloop
 endfacet
 facet normal 0 0 -1
   outer loop
     vertex -17.4654 11.5032 1
     vertex -11.5777 -13.1007 1
     vertex -17.0576 -16.1793 1
   endloop
 endfacet
 facet normal 0 0 -1
   outer loop
     vertex 13.1378 25.4556 1
     vertex 6.54703 25.4556 1
     vertex 1.82069 31.3661 1
   endloop
 endfacet
 facet normal -0 0 -1
   outer loop
     vertex 30.4877 -35.0576 1
     vertex 2.80524 -35.4654 1
     vertex 18.081 -29.2482 1
   endloop
 endfacet
 facet normal 0 -0 -1
   outer loop
     vertex 0.944837 -4.86215 1
     vertex 5.55841 -29.2482 1
     vertex -4.65736 -19.3619 1
   endloop
 endfacet
 facet normal 0 0 -1
   outer loop
     vertex 42.467 0.740044 1
     vertex 49.7739 -15.1948 1
     vertex 42.467 -13.4302 1
   endloop
 endfacet
 facet normal -0 -0 -1
   outer loop
     vertex 26.9786 -29.2482 1
     vertex 30.4877 -35.0576 1
     vertex 18.081 -29.2482 1
   endloop
 endfacet
 facet normal 0 -0 -1
   outer loop
     vertex 35.5466 7.98994 1
     vertex 35.5466 4.03545 1
     vertex 29.9444 0.740044 1
   endloop
 endfacet
 facet normal -0 -0 -1
   outer loop
     vertex -11.5777 9.96719 1
     vertex -11.5777 -13.1007 1
     vertex -17.4654 11.5032 1
   endloop
 endfacet
 facet normal -0 0 -1
   outer loop
     vertex 35.5466 7.98994 1
     vertex 29.9444 0.740044 1
     vertex 25.0013 18.2057 1
   endloop
 endfacet
 facet normal -0 -0 -1
   outer loop
     vertex 42.467 4.03545 1
     vertex 42.467 0.740044 1
     vertex 35.5466 4.03545 1
   endloop
 endfacet
 facet normal 0 0 -1
   outer loop
     vertex -4.65736 16.8875 1
     vertex -11.5777 9.96719 1
     vertex -17.4654 11.5032 1
   endloop
 endfacet
 facet normal 0 0 -1
   outer loop
     vertex 29.5032 31.7739 1
     vertex 18.081 25.4556 1
     vertex 13.1378 25.4556 1
   endloop
 endfacet
 facet normal 0 0 -1
   outer loop
     vertex 29.5032 31.7739 1
     vertex 27.3081 25.4556 1
     vertex 18.081 25.4556 1
   endloop
 endfacet
 facet normal 0 -0 -1
   outer loop
     vertex 29.5032 31.7739 1
     vertex 42.467 10.2967 1
     vertex 27.3081 25.4556 1
   endloop
 endfacet
 facet normal 0 0 -1
   outer loop
     vertex 29.5032 31.7739 1
     vertex 13.1378 25.4556 1
     vertex 1.82069 31.3661 1
   endloop
 endfacet
 facet normal 0 -0 -1
   outer loop
     vertex 49.3661 12.4877 1
     vertex 49.7739 -15.1948 1
     vertex 42.467 0.740044 1
   endloop
 endfacet
 facet normal 0 0 -1
   outer loop
     vertex 49.3661 12.4877 1
     vertex 42.467 4.03545 1
     vertex 42.467 10.2967 1
   endloop
 endfacet
 facet normal -0 0 -1
   outer loop
     vertex 49.3661 12.4877 1
     vertex 42.467 10.2967 1
     vertex 29.5032 31.7739 1
   endloop
 endfacet
 facet normal 0 -0 -1
   outer loop
     vertex 29.9444 -6.18031 1
     vertex 35.2171 -12.4416 1
     vertex 25.0013 -22.3278 1
   endloop
 endfacet
 facet normal 0 0 -1
   outer loop
     vertex 49.3661 12.4877 1
     vertex 42.467 0.740044 1
     vertex 42.467 4.03545 1
   endloop
 endfacet
 facet normal 0.707107 -0.707107 0
   outer loop
     vertex -4.65736 16.8875 3
     vertex -11.5777 9.96719 3
     vertex -11.5777 9.96719 1
   endloop
 endfacet
 facet normal 0.707107 -0.707107 0
   outer loop
     vertex -4.65736 16.8875 1
     vertex -4.65736 16.8875 3
     vertex -11.5777 9.96719 1
   endloop
 endfacet
 facet normal -1 0 0
   outer loop
     vertex -4.65736 -19.3619 1
     vertex -4.65736 -19.3619 3
     vertex -4.65736 1.72867 3
   endloop
 endfacet
 facet normal -1 0 0
   outer loop
     vertex -4.65736 -19.3619 1
     vertex -4.65736 1.72867 3
     vertex -4.65736 1.72867 1
   endloop
 endfacet
 facet normal -0.813733 -0.581238 0
   outer loop
     vertex 0.285756 9.96719 1
     vertex 0.285756 9.96719 3
     vertex -4.65736 16.8875 3
   endloop
 endfacet
 facet normal -0.813733 -0.581238 0
   outer loop
     vertex 0.285756 9.96719 1
     vertex -4.65736 16.8875 3
     vertex -4.65736 16.8875 1
   endloop
 endfacet
 facet normal 0.761939 0.647648 -0
   outer loop
     vertex -4.65736 1.72867 1
     vertex -4.65736 1.72867 3
     vertex 0.944837 -4.86215 3
   endloop
 endfacet
 facet normal 0.761939 0.647648 0
   outer loop
     vertex -4.65736 1.72867 1
     vertex 0.944837 -4.86215 3
     vertex 0.944837 -4.86215 1
   endloop
 endfacet
 facet normal 0.92711 -0.374789 0
   outer loop
     vertex 6.54703 25.4556 3
     vertex 0.285756 9.96719 3
     vertex 0.285756 9.96719 1
   endloop
 endfacet
 facet normal 0.92711 -0.374789 0
   outer loop
     vertex 6.54703 25.4556 1
     vertex 6.54703 25.4556 3
     vertex 0.285756 9.96719 1
   endloop
 endfacet
 facet normal -0.894427 0.447214 0
   outer loop
     vertex 0.944837 -4.86215 3
     vertex 5.55841 4.36499 3
     vertex 5.55841 4.36499 1
   endloop
 endfacet
 facet normal -0.894427 0.447214 0
   outer loop
     vertex 0.944837 -4.86215 1
     vertex 0.944837 -4.86215 3
     vertex 5.55841 4.36499 1
   endloop
 endfacet
 facet normal 0 -1 0
   outer loop
     vertex 13.1378 25.4556 1
     vertex 13.1378 25.4556 3
     vertex 6.54703 25.4556 3
   endloop
 endfacet
 facet normal 0 -1 0
   outer loop
     vertex 13.1378 25.4556 1
     vertex 6.54703 25.4556 3
     vertex 6.54703 25.4556 1
   endloop
 endfacet
 facet normal 1 0 -0
   outer loop
     vertex 5.55841 4.36499 1
     vertex 5.55841 4.36499 3
     vertex 5.55841 -29.2482 3
   endloop
 endfacet
 facet normal 1 0 0
   outer loop
     vertex 5.55841 4.36499 1
     vertex 5.55841 -29.2482 3
     vertex 5.55841 -29.2482 1
   endloop
 endfacet
 facet normal -1 0 0
   outer loop
     vertex 13.1378 -29.2482 1
     vertex 13.1378 -29.2482 3
     vertex 13.1378 25.4556 3
   endloop
 endfacet
 facet normal -1 0 0
   outer loop
     vertex 13.1378 -29.2482 1
     vertex 13.1378 25.4556 3
     vertex 13.1378 25.4556 1
   endloop
 endfacet
 facet normal 0 1 0
   outer loop
     vertex 5.55841 -29.2482 1
     vertex 5.55841 -29.2482 3
     vertex 13.1378 -29.2482 3
   endloop
 endfacet
 facet normal 0 1 0
   outer loop
     vertex 5.55841 -29.2482 1
     vertex 13.1378 -29.2482 3
     vertex 13.1378 -29.2482 1
   endloop
 endfacet
 facet normal 0 -1 0
   outer loop
     vertex 27.3081 25.4556 1
     vertex 27.3081 25.4556 3
     vertex 18.081 25.4556 3
   endloop
 endfacet
 facet normal 0 -1 0
   outer loop
     vertex 27.3081 25.4556 1
     vertex 18.081 25.4556 3
     vertex 18.081 25.4556 1
   endloop
 endfacet
 facet normal -0.707107 -0.707107 0
   outer loop
     vertex 42.467 10.2967 1
     vertex 42.467 10.2967 3
     vertex 27.3081 25.4556 3
   endloop
 endfacet
 facet normal -0.707107 -0.707107 0
   outer loop
     vertex 42.467 10.2967 1
     vertex 27.3081 25.4556 3
     vertex 27.3081 25.4556 1
   endloop
 endfacet
 facet normal 1 0 -0
   outer loop
     vertex 18.081 25.4556 1
     vertex 18.081 25.4556 3
     vertex 18.081 -29.2482 3
   endloop
 endfacet
 facet normal 1 0 0
   outer loop
     vertex 18.081 25.4556 1
     vertex 18.081 -29.2482 3
     vertex 18.081 -29.2482 1
   endloop
 endfacet
 facet normal -1 0 0
   outer loop
     vertex 42.467 4.03545 1
     vertex 42.467 4.03545 3
     vertex 42.467 10.2967 3
   endloop
 endfacet
 facet normal -1 0 0
   outer loop
     vertex 42.467 4.03545 1
     vertex 42.467 10.2967 3
     vertex 42.467 10.2967 1
   endloop
 endfacet
 facet normal 0 1 0
   outer loop
     vertex 18.081 -29.2482 1
     vertex 18.081 -29.2482 3
     vertex 26.9786 -29.2482 3
   endloop
 endfacet
 facet normal 0 1 0
   outer loop
     vertex 18.081 -29.2482 1
     vertex 26.9786 -29.2482 3
     vertex 26.9786 -29.2482 1
   endloop
 endfacet
 facet normal 0 1 0
   outer loop
     vertex 35.5466 4.03545 1
     vertex 35.5466 4.03545 3
     vertex 42.467 4.03545 3
   endloop
 endfacet
 facet normal 0 1 0
   outer loop
     vertex 35.5466 4.03545 1
     vertex 42.467 4.03545 3
     vertex 42.467 4.03545 1
   endloop
 endfacet
 facet normal -0.71451 0.699625 0
   outer loop
     vertex 26.9786 -29.2482 1
     vertex 26.9786 -29.2482 3
     vertex 42.467 -13.4302 3
   endloop
 endfacet
 facet normal -0.71451 0.699625 0
   outer loop
     vertex 26.9786 -29.2482 1
     vertex 42.467 -13.4302 3
     vertex 42.467 -13.4302 1
   endloop
 endfacet
 facet normal 1 0 0
   outer loop
     vertex 35.5466 7.98994 3
     vertex 35.5466 4.03545 3
     vertex 35.5466 4.03545 1
   endloop
 endfacet
 facet normal 1 0 -0
   outer loop
     vertex 35.5466 7.98994 1
     vertex 35.5466 7.98994 3
     vertex 35.5466 4.03545 1
   endloop
 endfacet
 facet normal -1 0 0
   outer loop
     vertex 42.467 -13.4302 1
     vertex 42.467 -13.4302 3
     vertex 42.467 0.740044 3
   endloop
 endfacet
 facet normal -1 0 0
   outer loop
     vertex 42.467 -13.4302 1
     vertex 42.467 0.740044 3
     vertex 42.467 0.740044 1
   endloop
 endfacet
 facet normal 0.695795 0.71824 -0
   outer loop
     vertex 25.0013 18.2057 1
     vertex 25.0013 18.2057 3
     vertex 35.5466 7.98994 3
   endloop
 endfacet
 facet normal 0.695795 0.71824 0
   outer loop
     vertex 25.0013 18.2057 1
     vertex 35.5466 7.98994 3
     vertex 35.5466 7.98994 1
   endloop
 endfacet
 facet normal 0 -1 0
   outer loop
     vertex 42.467 0.740044 1
     vertex 42.467 0.740044 3
     vertex 29.9444 0.740044 3
   endloop
 endfacet
 facet normal 0 -1 0
   outer loop
     vertex 42.467 0.740044 1
     vertex 29.9444 0.740044 3
     vertex 29.9444 0.740044 1
   endloop
 endfacet
 facet normal -1 0 0
   outer loop
     vertex 25.0013 -22.3278 1
     vertex 25.0013 -22.3278 3
     vertex 25.0013 18.2057 3
   endloop
 endfacet
 facet normal -1 0 0
   outer loop
     vertex 25.0013 -22.3278 1
     vertex 25.0013 18.2057 3
     vertex 25.0013 18.2057 1
   endloop
 endfacet
 facet normal 1 0 -0
   outer loop
     vertex 29.9444 0.740044 1
     vertex 29.9444 0.740044 3
     vertex 29.9444 -6.18031 3
   endloop
 endfacet
 facet normal 1 0 0
   outer loop
     vertex 29.9444 0.740044 1
     vertex 29.9444 -6.18031 3
     vertex 29.9444 -6.18031 1
   endloop
 endfacet
 facet normal 0.695421 -0.718602 0
   outer loop
     vertex 35.2171 -12.4416 3
     vertex 25.0013 -22.3278 3
     vertex 25.0013 -22.3278 1
   endloop
 endfacet
 facet normal 0.695421 -0.718602 0
   outer loop
     vertex 35.2171 -12.4416 1
     vertex 35.2171 -12.4416 3
     vertex 25.0013 -22.3278 1
   endloop
 endfacet
 facet normal -0 1 0
   outer loop
     vertex 29.9444 -6.18031 3
     vertex 35.2171 -6.18031 3
     vertex 35.2171 -6.18031 1
   endloop
 endfacet
 facet normal 0 1 0
   outer loop
     vertex 29.9444 -6.18031 1
     vertex 29.9444 -6.18031 3
     vertex 35.2171 -6.18031 1
   endloop
 endfacet
 facet normal 1 0 -0
   outer loop
     vertex 35.2171 -6.18031 1
     vertex 35.2171 -6.18031 3
     vertex 35.2171 -12.4416 3
   endloop
 endfacet
 facet normal 1 0 0
   outer loop
     vertex 35.2171 -6.18031 1
     vertex 35.2171 -12.4416 3
     vertex 35.2171 -12.4416 1
   endloop
 endfacet
 facet normal -0.0147302 0.999892 0
   outer loop
     vertex 1.82069 31.3661 1
     vertex 1.82069 31.3661 3
     vertex 29.5032 31.7739 3
   endloop
 endfacet
 facet normal -0.0147302 0.999892 0
   outer loop
     vertex 1.82069 31.3661 1
     vertex 29.5032 31.7739 3
     vertex 29.5032 31.7739 1
   endloop
 endfacet
 facet normal -0.717446 0.696614 0
   outer loop
     vertex -17.4654 11.5032 1
     vertex -17.4654 11.5032 3
     vertex 1.82069 31.3661 3
   endloop
 endfacet
 facet normal -0.717446 0.696614 0
   outer loop
     vertex -17.4654 11.5032 1
     vertex 1.82069 31.3661 3
     vertex 1.82069 31.3661 1
   endloop
 endfacet
 facet normal 0.696614 0.717446 -0
   outer loop
     vertex 29.5032 31.7739 1
     vertex 29.5032 31.7739 3
     vertex 49.3661 12.4877 3
   endloop
 endfacet
 facet normal 0.696614 0.717446 0
   outer loop
     vertex 29.5032 31.7739 1
     vertex 49.3661 12.4877 3
     vertex 49.3661 12.4877 1
   endloop
 endfacet
 facet normal -0.999892 -0.0147302 0
   outer loop
     vertex -17.0576 -16.1793 3
     vertex -17.4654 11.5032 3
     vertex -17.4654 11.5032 1
   endloop
 endfacet
 facet normal -0.999892 -0.0147302 0
   outer loop
     vertex -17.0576 -16.1793 1
     vertex -17.0576 -16.1793 3
     vertex -17.4654 11.5032 1
   endloop
 endfacet
 facet normal 0.999892 0.0147302 -0
   outer loop
     vertex 49.3661 12.4877 1
     vertex 49.3661 12.4877 3
     vertex 49.7739 -15.1948 3
   endloop
 endfacet
 facet normal 0.999892 0.0147302 0
   outer loop
     vertex 49.3661 12.4877 1
     vertex 49.7739 -15.1948 3
     vertex 49.7739 -15.1948 1
   endloop
 endfacet
 facet normal -0.696614 -0.717446 0
   outer loop
     vertex 2.80524 -35.4654 3
     vertex -17.0576 -16.1793 3
     vertex -17.0576 -16.1793 1
   endloop
 endfacet
 facet normal -0.696614 -0.717446 0
   outer loop
     vertex 2.80524 -35.4654 1
     vertex 2.80524 -35.4654 3
     vertex -17.0576 -16.1793 1
   endloop
 endfacet
 facet normal 0.717446 -0.696614 0
   outer loop
     vertex 49.7739 -15.1948 1
     vertex 49.7739 -15.1948 3
     vertex 30.4877 -35.0576 3
   endloop
 endfacet
 facet normal 0.717446 -0.696614 0
   outer loop
     vertex 49.7739 -15.1948 1
     vertex 30.4877 -35.0576 3
     vertex 30.4877 -35.0576 1
   endloop
 endfacet
 facet normal 0.0147302 -0.999892 0
   outer loop
     vertex 30.4877 -35.0576 1
     vertex 30.4877 -35.0576 3
     vertex 2.80524 -35.4654 3
   endloop
 endfacet
 facet normal 0.0147302 -0.999892 0
   outer loop
     vertex 30.4877 -35.0576 1
     vertex 2.80524 -35.4654 3
     vertex 2.80524 -35.4654 1
   endloop
 endfacet
endsolid
